<svg xmlns="http://www.w3.org/2000/svg" viewBox="0 0 43.92 85.11"><defs><style>.cls-1{fill:#708b75;}.cls-1,.cls-2{opacity:0.5;}.cls-2{fill:#536752;}</style></defs><g id="Calque_2" data-name="Calque 2"><g id="Calque_14" data-name="Calque 14"><path class="cls-1" d="M9.43,29c-.75-2.52-2.66-10.23,1.26-17.81C13.57,5.56,20.34-1.33,25.74.22a6.23,6.23,0,0,1,2.93,1.93c3.12,3.55,2.43,10.36-1.8,17.09A18,18,0,0,1,19,27.15,17.76,17.76,0,0,1,9.43,29Z"/><path class="cls-1" d="M1.64,66.05C-.16,67.23,0,70.18,0,71.5c.21,4.74,3.37,8,4.54,9.15,2.54,2.53,7.07,5.47,8.94,4.12a2.09,2.09,0,0,0,.56-.7c1.14-1.95.6-4.44-.07-6.53C12.53,72.92,11.34,69.19,7.64,67,6.85,66.57,3.68,64.72,1.64,66.05Z"/><path class="cls-2" d="M23.38,34.23c-.13.36.38.69,1.67,2.73.58.91.8,1.35,1.05,1.76a15.69,15.69,0,0,0,5,4.67c.93.59,1.41.79,6.26,2.73,5.55,2.21,6.1,2.41,6.39,2.1.94-1-2.16-5.86-5.69-9.16a20,20,0,0,0-7.92-4.69C27.11,33.49,23.7,33.36,23.38,34.23Z"/></g></g></svg>