<svg xmlns="http://www.w3.org/2000/svg" viewBox="0 0 75.73 48.71"><defs><style>.cls-1{fill:#708b75;}.cls-1,.cls-2{opacity:0.5;}.cls-3{fill:#546852;}</style></defs><g id="Calque_2" data-name="Calque 2"><g id="Calque_14" data-name="Calque 14"><path class="cls-1" d="M1.17,5.62C-3,12.59,4.83,23,10.23,30.23,15.9,37.8,25.92,51.17,36,48.32c6.41-1.82,11.69-9.87,10.74-16.39s-7.25-6.37-16.81-18.12C23.77,6.24,23.75,3,19.08,1.07,13.05-1.38,4.25.46,1.17,5.62Z"/><g class="cls-2"><path class="cls-3" d="M11.51,3.17l0,.08c-.2.61,1.24,2,2.79,2.48,1.25.41,2.81.38,2.93,0,.17-.57-2.45-1.72-3-2S11.84,2.71,11.51,3.17Z"/><path class="cls-3" d="M18.58,8.29a.88.88,0,0,0-.27.77c.1.77,1.18,1.17,1.56,1.31,1.18.43,2.79.44,2.93,0,.21-.67-2.73-1.85-3-2C19.38,8.21,18.89,8.06,18.58,8.29Z"/><path class="cls-3" d="M22.26,7.63s.1-.15,0-.55A3.08,3.08,0,0,0,20,5c-.64-.13-1.6-.08-1.74.31-.2.57,1.48,1.58,1.64,1.67C20.71,7.46,22,8,22.26,7.63Z"/></g><path class="cls-1" d="M63.45,4C54.78,3.74,48,14.3,49.84,18.47c1,2.34,4.16,1.23,12.28,4.84,6.21,2.76,7.34,4.72,9.38,4,3.77-1.35,6-10.16,2.49-16.49C72.05,7.28,68.11,4.08,63.45,4Z"/><g class="cls-2"><path class="cls-3" d="M71,9.05l-.06,0c-.44.21-.43,1.69.09,2.82.42.9,1.25,1.74,1.54,1.59s-.33-2.23-.49-2.66S71.38,9,71,9.05Z"/><path class="cls-3" d="M71,13.85a.37.37,0,0,0-.38.14c-.24.29.05.86.15,1.06.31.62.94,1.27,1.17,1.18s-.42-1.71-.49-1.86S71.16,13.9,71,13.85Z"/><path class="cls-3" d="M73.86,16.83s.12,0,.26-.28a2.2,2.2,0,0,0,0-2.16c-.25-.39-.74-.86-1-.74S73,15.19,73,15.31C73.19,16,73.53,16.86,73.86,16.83Z"/><path class="cls-3" d="M68.52,10.37s-.1,0-.13.24a2,2,0,0,0,.81,1.71c.36.28,1,.61,1.15.48s-.49-1.22-.56-1.32C69.43,11,68.79,10.31,68.52,10.37Z"/><path class="cls-3" d="M73.38,12.72c-.15.1-.49-.06-.61-.3s0-.29,0-.56c0-.64-.19-1-.1-1s.41.33.61.86C73.3,11.72,73.62,12.56,73.38,12.72Z"/></g></g></g></svg>