<svg xmlns="http://www.w3.org/2000/svg" viewBox="0 0 120 124.96"><defs><style>.cls-1{fill:#9ab87b;}.cls-2{fill:#f0ebdd;stroke:#fff;stroke-miterlimit:10;stroke-width:0.57px;}</style></defs><g id="Calque_2" data-name="Calque 2"><g id="Calque_5" data-name="Calque 5"><path class="cls-1" d="M.09,124.8c1,1.21,8.42-6.37,18.77-9.84,22.83-7.65,35.4,12.83,63.13,9.66,4.16-.47,25.09-2.57,33.82-18,3.91-6.92,6.16-17.91,1.85-27C104.57,51.92,37.32,55.28,37.35,55s5.58.53,5.58.53c30.32,4.23,35.25,4.3,44.65,7.84s13.16,6.76,15.57,9.6c2,2.33,5.69,6.76,5.65,12-.09,10.81-16.84,23-30.73,21.37-8.22-1-12.18-5.2-26.82-8.6a29.18,29.18,0,0,0-8.92-.58c-14.3,1.09-25.32,10-30.28,14C5.39,116.54-.83,123.66.09,124.8Z"/><path class="cls-1" d="M103.17.07c-.82-.79-5.93,5-13.51,8.15C72.94,15.09,62.05,1.41,41.32,5.41,37,6.25,23.06,8.88,17,20.31c-4.82,9.1-4.24,23,3.27,30.08a17.74,17.74,0,0,0,4.07,2.84c-2-2.17-8.6-9.71-7-18.12,2.06-11,17.24-18.49,28.2-17,5.77.76,10,2.92,20.75,4.36a23.22,23.22,0,0,0,6.86-.14c10.73-1.68,18.45-8.67,21.92-11.81C99.73,6.25,103.94.82,103.17.07Z"/><path class="cls-2" d="M7.63,31.36a.6.6,0,0,1,.65.4,4.63,4.63,0,0,1,.13,1.32,5.91,5.91,0,0,0,.25,1.72,3.92,3.92,0,0,0,.7,1.35,3.08,3.08,0,0,0,2.51,1.1,3.09,3.09,0,0,0,2.55-1.18,5.32,5.32,0,0,0,.95-3.39,7,7,0,0,0-2.51-5.25c-.47-.44-1-.87-1.46-1.29s-1-.87-1.46-1.32a10.32,10.32,0,0,1-1.28-1.51,7.27,7.27,0,0,1-1.23-4.16A5.31,5.31,0,0,1,8.84,15.3a4.66,4.66,0,0,1,3.5-1.46,3.92,3.92,0,0,1,3,1.22,5.11,5.11,0,0,1,1.19,3.85,1.11,1.11,0,0,0,0,.26c0,.09,0,.25,0,.5a1.07,1.07,0,0,1-.31.66.84.84,0,0,1-.6.29.68.68,0,0,1-.54-.29,1,1,0,0,1-.14-.76,11.22,11.22,0,0,0,.19-1.64,2.89,2.89,0,0,0-.2-1.06,2.83,2.83,0,0,0-.57-.89,2.78,2.78,0,0,0-2.08-.82,3,3,0,0,0-2.3,1,3.73,3.73,0,0,0-1,2.62,7.62,7.62,0,0,0,.34,2.52,7,7,0,0,0,.9,1.72,8.1,8.1,0,0,0,1.27,1.41c.47.43,1,.85,1.45,1.26s1,.85,1.44,1.29a8.93,8.93,0,0,1,1.28,1.46,7.26,7.26,0,0,1,1.23,4.17A6.47,6.47,0,0,1,15.41,37a4.71,4.71,0,0,1-3.76,1.63,4.39,4.39,0,0,1-3.58-1.69,5.46,5.46,0,0,1-1.3-3.57C6.77,32,7.05,31.36,7.63,31.36Z"/><path class="cls-2" d="M22.3,30l0,5.26v1.22c0,.15,0,.28,0,.38,2.49,0,4.15,0,5-.11a7,7,0,0,1,1.48-.08,1,1,0,0,1,.36.19.79.79,0,0,1,.3.59.71.71,0,0,1-.28.55,1.13,1.13,0,0,1-.79.2A31.31,31.31,0,0,0,24,38.16c-1.31.09-2,.14-2.2.17a1.47,1.47,0,0,1-.42,0,.78.78,0,0,1-.33-.16.83.83,0,0,1-.32-.74q.23-4.29.23-9.49V21.4c0-.9,0-1.71,0-2.46,0-1.59-.05-2.71-.1-3.37a2.83,2.83,0,0,1,0-1.18.67.67,0,0,1,.27-.28.93.93,0,0,1,.56,0,10.34,10.34,0,0,0,1.65.11c1.32,0,2.21,0,2.69-.08a2.9,2.9,0,0,1,.93,0,1,1,0,0,1,.34.19.72.72,0,0,1,.3.58.71.71,0,0,1-.27.56,1,1,0,0,1-.73.2l-1-.06-1.11-.07a18.64,18.64,0,0,0-2.16,0c0,.86,0,1.72,0,2.57,0,1,0,2,0,3.07q0,4.18,0,6.17,1.85,0,2.73-.09a1.91,1.91,0,0,1,1.19.09.64.64,0,0,1,.25.52c0,.54-.51.81-1.53.79l-.57,0H22.3Z"/><path class="cls-2" d="M46.8,19.57l0,5.35q0,5.61.24,12.33a.85.85,0,0,1-.25.7.86.86,0,0,1-.58.22.85.85,0,0,1-.6-.25,1,1,0,0,1-.27-.73q.22-6.67.23-11.13V18.38c0-.57,0-1.11,0-1.62-.21.84-.5,1.94-.84,3.28-.79,3-1.35,5-1.66,6.14s-.64,2.24-1,3.34c-.66,2.27-1.26,4.25-1.83,6a.73.73,0,0,1-.35.44,1,1,0,0,1-.49.15c-.31,0-.52-.2-.63-.59l-.34-1.15c-.19-.61-.42-1.36-.69-2.26s-.57-1.9-.9-3-.67-2.25-1-3.42l-1-3.47L33.91,19c-.23-.8-.42-1.49-.58-2.07l0,3.68q0,6.72.14,11.11c.1,2.92.15,4.63.16,5.1a2.39,2.39,0,0,1-.07.88.75.75,0,0,1-.21.26.76.76,0,0,1-1.14,0A1.07,1.07,0,0,1,32,37q0-.63.06-1.59c0-.64,0-1.31,0-2,0-1.68.06-3.24.06-4.67L32,15.25a1.2,1.2,0,0,1,.31-.94A1.09,1.09,0,0,1,33,14c.52,0,.88.32,1.08,1l.16.53q.12.44.33,1.14l.48,1.63c.19.62.38,1.29.59,2s.42,1.46.65,2.24q1.19,4.08,3.28,11.17,1.1-3.13,4-14.2C44,18,44.43,16.54,44.82,15a1.18,1.18,0,0,1,1.23-1,.7.7,0,0,1,.61.38,1.88,1.88,0,0,1,.2,1.09Q46.8,16.45,46.8,19.57Z"/><path class="cls-2" d="M53.14,30l0,5.26v1.22c0,.15,0,.28,0,.38,2.49,0,4.15,0,5-.11a7.06,7.06,0,0,1,1.49-.08,1.08,1.08,0,0,1,.35.19.79.79,0,0,1,.3.59A.71.71,0,0,1,60,38a1.13,1.13,0,0,1-.79.2,31.31,31.31,0,0,0-4.39-.07c-1.31.09-2,.14-2.2.17a1.47,1.47,0,0,1-.42,0,.84.84,0,0,1-.33-.16.8.8,0,0,1-.31-.74c.14-2.86.22-6,.22-9.49s0-5.65,0-6.54V18.94c0-1.59,0-2.71-.1-3.37a2.83,2.83,0,0,1,0-1.18.67.67,0,0,1,.27-.28,1,1,0,0,1,.57,0,10.11,10.11,0,0,0,1.64.11c1.32,0,2.21,0,2.69-.08a2.9,2.9,0,0,1,.93,0,1,1,0,0,1,.34.19.72.72,0,0,1,.3.58.71.71,0,0,1-.27.56,1,1,0,0,1-.72.2l-1-.06-1.12-.07a18.64,18.64,0,0,0-2.16,0c0,.86,0,1.72,0,2.57,0,1,0,2,0,3.07q0,4.18,0,6.17c1.24,0,2.14,0,2.73-.09a1.91,1.91,0,0,1,1.19.09.61.61,0,0,1,.25.52c0,.54-.51.81-1.53.79l-.57,0H53.14Z"/><path class="cls-2" d="M74.2,14.92c-.06,4.93-.09,8.41-.09,10.46s0,3.54,0,4.49,0,1.86,0,2.72c0,1.82,0,3.07.07,3.73a3.83,3.83,0,0,1,0,1.2,1.07,1.07,0,0,1-1.53.43,1,1,0,0,1-.38-.54q-1.31-3.82-3.15-8.31c-1.22-3-2.08-5.11-2.57-6.34-.88-2.25-1.64-4.3-2.29-6.17l.19,20.69a.88.88,0,0,1-.24.68.78.78,0,0,1-.54.23.82.82,0,0,1-.56-.25.89.89,0,0,1-.25-.73Q63,33.13,63,27.9V19.11q0-2.31,0-4a1,1,0,0,1,.33-.84A1.1,1.1,0,0,1,64,14a1,1,0,0,1,1.09.79c.18.52.44,1.22.76,2.11s.69,1.87,1.1,2.95.84,2.23,1.3,3.44.94,2.42,1.4,3.62.91,2.37,1.35,3.5.83,2.15,1.19,3.07l.9,2.36,0,.07Q73,33,72.93,29.6q-.08-4.17-.13-6.25c0-1.38-.07-2.79-.1-4.21s-.08-2.82-.13-4.22a.9.9,0,0,1,.26-.7A.85.85,0,0,1,73.4,14a.8.8,0,0,1,.56.23A.93.93,0,0,1,74.2,14.92Z"/><path class="cls-2" d="M87.1,32a1.12,1.12,0,0,1,.24-.76A.73.73,0,0,1,87.9,31a.8.8,0,0,1,.57.22.87.87,0,0,1,.21.71,8.13,8.13,0,0,1-1.61,4.82,4.35,4.35,0,0,1-3.53,1.75q-4,0-5.18-6a26.5,26.5,0,0,1-.45-5.22A35.56,35.56,0,0,1,78.28,22a17.15,17.15,0,0,1,1.13-4.09Q81,14.16,84,14.15A3.74,3.74,0,0,1,87.44,16q1.17,1.93,1.17,6.35a1,1,0,0,1-.22.73.72.72,0,0,1-.54.25c-.45,0-.68-.29-.68-.86q0-5.49-1.75-6.55A2.87,2.87,0,0,0,84,15.53a2.55,2.55,0,0,0-1.5.47,4.33,4.33,0,0,0-1.17,1.29,9.44,9.44,0,0,0-.88,1.94,18,18,0,0,0-.61,2.41,29.47,29.47,0,0,0-.47,5.16,40.1,40.1,0,0,0,.16,4.08A16.71,16.71,0,0,0,80,33.5a6.85,6.85,0,0,0,.71,1.78,4.23,4.23,0,0,0,.89,1.1,3.22,3.22,0,0,0,2.12.69A2.87,2.87,0,0,0,86,35.9,5.94,5.94,0,0,0,87.1,32Z"/><path class="cls-2" d="M94.1,30l0,5.26v1.22c0,.15,0,.28,0,.38,2.49,0,4.15,0,5-.11a7.06,7.06,0,0,1,1.49-.08,1.08,1.08,0,0,1,.35.19.79.79,0,0,1,.3.59A.71.71,0,0,1,101,38a1.13,1.13,0,0,1-.79.2,31.31,31.31,0,0,0-4.39-.07c-1.31.09-2,.14-2.2.17a1.47,1.47,0,0,1-.42,0,.84.84,0,0,1-.33-.16.8.8,0,0,1-.31-.74c.14-2.86.22-6,.22-9.49s0-5.65,0-6.54V18.94c0-1.59-.05-2.71-.1-3.37a2.83,2.83,0,0,1,0-1.18.67.67,0,0,1,.27-.28.93.93,0,0,1,.56,0,10.34,10.34,0,0,0,1.65.11c1.32,0,2.21,0,2.69-.08a2.9,2.9,0,0,1,.93,0,1,1,0,0,1,.34.19.72.72,0,0,1,.3.58.71.71,0,0,1-.27.56,1,1,0,0,1-.73.2l-1-.06-1.12-.07a18.64,18.64,0,0,0-2.16,0c0,.86,0,1.72,0,2.57,0,1,0,2,0,3.07q0,4.18,0,6.17,1.84,0,2.73-.09a1.91,1.91,0,0,1,1.19.09.64.64,0,0,1,.25.52c0,.54-.51.81-1.53.79l-.57,0H94.1Z"/><path class="cls-2" d="M103.56,31.36a.59.59,0,0,1,.65.4,4.55,4.55,0,0,1,.14,1.32,5.59,5.59,0,0,0,.25,1.72,3.92,3.92,0,0,0,.7,1.35,3.08,3.08,0,0,0,2.51,1.1,3.11,3.11,0,0,0,2.55-1.18,5.32,5.32,0,0,0,1-3.39,7,7,0,0,0-2.51-5.25c-.48-.44-1-.87-1.46-1.29s-1-.87-1.46-1.32a9.74,9.74,0,0,1-1.28-1.51,7.27,7.27,0,0,1-1.23-4.16,5.31,5.31,0,0,1,1.41-3.85,4.66,4.66,0,0,1,3.5-1.46,3.92,3.92,0,0,1,3,1.22,5.11,5.11,0,0,1,1.18,3.85,1.13,1.13,0,0,0,0,.26c0,.09,0,.25,0,.5a1.09,1.09,0,0,1-.32.66.82.82,0,0,1-.59.29.68.68,0,0,1-.54-.29,1,1,0,0,1-.15-.76,10,10,0,0,0,.19-1.64,2.7,2.7,0,0,0-.2-1.06,2.52,2.52,0,0,0-.57-.89,2.74,2.74,0,0,0-2.07-.82,3,3,0,0,0-2.3,1,3.73,3.73,0,0,0-1,2.62,7.62,7.62,0,0,0,.34,2.52,7,7,0,0,0,.9,1.72,8.47,8.47,0,0,0,1.26,1.41c.48.43,1,.85,1.45,1.26s1,.85,1.45,1.29a8.87,8.87,0,0,1,1.27,1.46,7.26,7.26,0,0,1,1.23,4.17,6.47,6.47,0,0,1-1.42,4.4,4.71,4.71,0,0,1-3.77,1.63A4.39,4.39,0,0,1,104,36.92a5.47,5.47,0,0,1-1.31-3.57C102.7,32,103,31.36,103.56,31.36Z"/><path class="cls-2" d="M59.9,56.2a15.61,15.61,0,0,1,.48,4A21.6,21.6,0,0,1,60,64.27a18.75,18.75,0,0,1-1,3.47,14.76,14.76,0,0,1-1.6,2.88,11.27,11.27,0,0,1-2,2.18,7.89,7.89,0,0,1-5.06,1.87.56.56,0,0,1-.56-.27,1.69,1.69,0,0,1-.12-.66V72.46c0-.61,0-1.36,0-2.23s0-1.85,0-2.92,0-2.19,0-3.34,0-2.31-.05-3.49,0-2.29,0-3.36c-.06-2.21-.13-4-.21-5.23a.93.93,0,0,1,.89-1.13,16.68,16.68,0,0,1,2.35-.21Q58.42,50.55,59.9,56.2ZM51.06,73.28a5.56,5.56,0,0,0,3.34-1.44,12.88,12.88,0,0,0,4.12-7.66,19.73,19.73,0,0,0,.36-4,12.36,12.36,0,0,0-.54-3.86,7.53,7.53,0,0,0-1.4-2.62,5.29,5.29,0,0,0-4.17-1.84,5.62,5.62,0,0,0-1.81.24q-.12,1.53-.12,4.29c0,2.2,0,3.89,0,5s0,2.31,0,3.43,0,2.19,0,3.21,0,1.94.06,2.75C51,71.89,51,72.69,51.06,73.28Z"/><path class="cls-2" d="M65.45,66.48l0,5.27V73c0,.14,0,.27,0,.38,2.49,0,4.14,0,5-.12A6.72,6.72,0,0,1,72,73.16a.9.9,0,0,1,.65.78.7.7,0,0,1-.28.55,1.13,1.13,0,0,1-.79.2,31.29,31.29,0,0,0-4.39-.07c-1.3.08-2,.14-2.19.16a1,1,0,0,1-.43,0,.71.71,0,0,1-.33-.15.8.8,0,0,1-.31-.74q.23-4.29.22-9.49t0-6.54c0-.9,0-1.72,0-2.46,0-1.59-.06-2.72-.11-3.37a2.83,2.83,0,0,1,0-1.18.67.67,0,0,1,.27-.28,1,1,0,0,1,.57,0,10.11,10.11,0,0,0,1.64.11,26.18,26.18,0,0,0,2.7-.09,2.71,2.71,0,0,1,.92,0,.91.91,0,0,1,.34.18.73.73,0,0,1,.3.58.71.71,0,0,1-.27.57,1.06,1.06,0,0,1-.72.2l-1-.06-1.11-.07a18.81,18.81,0,0,0-2.17,0c0,.86,0,1.72,0,2.57,0,1,0,2,0,3.07,0,2.79,0,4.84,0,6.17q1.86,0,2.73-.09a1.91,1.91,0,0,1,1.19.09.61.61,0,0,1,.25.52q0,.81-1.53.78h-.56l-1.2,0h-.88Z"/><path class="cls-2" d="M37.08,104.54c.08,2.39.14,4.22.18,5.51a.94.94,0,0,1-.25.75.81.81,0,0,1-.56.24.78.78,0,0,1-.54-.23,1,1,0,0,1-.24-.73V98c0-2.69,0-4.4-.07-5.13s-.08-1.29-.1-1.66,0-.76-.07-1.15-.06-.78-.08-1.15a1.57,1.57,0,0,1,.07-.77.85.85,0,0,1,.28-.31,1,1,0,0,1,.34-.12l.75-.18A13.77,13.77,0,0,1,40,87.08a7,7,0,0,1,2.39.36,4.38,4.38,0,0,1,1.67,1.08,6,6,0,0,1,1.49,4.36,10.79,10.79,0,0,1-2.7,7.08A20.2,20.2,0,0,1,37.08,104.54Zm0-1.41Q44.2,99.25,44.2,93q0-3.43-2.37-4.41a6.08,6.08,0,0,0-4.29.13L37,89c-.07,1.73-.11,3.51-.11,5.34v4.48c0,.19,0,.37,0,.55s0,.37,0,.57,0,.47,0,.79,0,.72.05,1.21S37,102.65,37,103.13Z"/><path class="cls-2" d="M52.73,87a.92.92,0,0,1,.65.29,2.46,2.46,0,0,1,.47,1.24c.11.63.29,1.53.52,2.7s.49,2.41.78,3.73l.9,4.11c.32,1.41.64,2.77,1,4.1.76,3.1,1.36,5.37,1.78,6.81a1,1,0,0,1-.08.87.63.63,0,0,1-.51.33.91.91,0,0,1-.51-.16c-.16-.11-.29-.43-.41-1s-.31-1.4-.58-2.6-.55-2.48-.86-3.85c0-.06,0-.12,0-.16-.67,0-1.62,0-2.85,0-1.44,0-2.54,0-3.31.06a1.1,1.1,0,0,0,0,.18c-.61,2.91-1,5.16-1.34,6.75-.1.5-.36.75-.79.75a.75.75,0,0,1-.81-.65,1.28,1.28,0,0,1,.09-.61c.09-.27.22-.75.39-1.43s.36-1.45.56-2.33.42-1.83.65-2.87.46-2.1.7-3.2.47-2.21.71-3.32.46-2.19.68-3.22.42-2,.62-2.93.34-1.63.46-2.16C51.73,87.51,52.13,87,52.73,87Zm-2.8,15.07c.75,0,1.76.06,3,.06,1.06,0,1.9,0,2.53,0l-.62-2.78c-.32-1.47-.64-2.9-.93-4.29-.5-2.26-.92-4.25-1.28-6-.23,1.14-.55,2.69-1,4.64l-1.26,6C50.26,100.53,50.09,101.33,49.93,102.11Z"/><path class="cls-2" d="M67.8,105.83l.11,4.32a.9.9,0,0,1-.64.91,1.48,1.48,0,0,1-.39,0,.71.71,0,0,1-.47-.24.91.91,0,0,1-.21-.77c0-.35.06-.7.1-1s.08-.69.11-1c.07-.83.1-1.48.1-1.94s0-.87,0-1.21,0-.68,0-1,0-.61,0-1c-.33-.83-.69-1.71-1.09-2.65-.5-1.23-1-2.51-1.57-3.83q-3.34-8.07-3.35-8.74a.78.78,0,0,1,.22-.59.83.83,0,0,1,.57-.24.6.6,0,0,1,.54.23,6.47,6.47,0,0,1,.58,1.55c.25.87.62,2,1.12,3.36s1,2.68,1.49,3.92c.67,1.66,1.41,3.41,2.24,5.27l.48-1.29c.29-.74.58-1.52.88-2.34l.92-2.5.9-2.52c.69-2,1.13-3.34,1.32-4a8.61,8.61,0,0,1,.47-1.38.63.63,0,0,1,.58-.38.62.62,0,0,1,.71.7,16,16,0,0,1-1.06,3.29c-.7,1.84-1.16,3-1.36,3.63s-.4,1.12-.59,1.63l-.61,1.63c-.21.58-.44,1.17-.67,1.78l-.66,1.75c-.24.59-.44,1.09-.59,1.49C67.83,104.38,67.8,105.45,67.8,105.83Z"/><path class="cls-2" d="M76.09,104.28a.61.61,0,0,1,.66.4,4.54,4.54,0,0,1,.13,1.32,5.68,5.68,0,0,0,.25,1.72,4.11,4.11,0,0,0,.7,1.35,3.08,3.08,0,0,0,2.51,1.1A3.11,3.11,0,0,0,82.89,109a5.32,5.32,0,0,0,1-3.39,7,7,0,0,0-2.51-5.26c-.47-.43-1-.86-1.46-1.29s-1-.86-1.46-1.32a9.29,9.29,0,0,1-1.28-1.51,7.26,7.26,0,0,1-1.23-4.15,5.33,5.33,0,0,1,1.41-3.86,4.65,4.65,0,0,1,3.5-1.45,3.91,3.91,0,0,1,3,1.21A5.17,5.17,0,0,1,85,91.83a1,1,0,0,0,0,.25q0,.14,0,.51a1.19,1.19,0,0,1-.31.66.84.84,0,0,1-.6.29.68.68,0,0,1-.54-.29,1,1,0,0,1-.15-.77,10.23,10.23,0,0,0,.2-1.64,2.75,2.75,0,0,0-.78-2,2.77,2.77,0,0,0-2.07-.81,3,3,0,0,0-2.3,1,3.76,3.76,0,0,0-1,2.63,7.6,7.6,0,0,0,.34,2.51,7.09,7.09,0,0,0,.9,1.73,8.9,8.9,0,0,0,1.27,1.41l1.44,1.26c.49.41,1,.84,1.45,1.28a9.3,9.3,0,0,1,1.27,1.46,7.19,7.19,0,0,1,1.24,4.17,6.52,6.52,0,0,1-1.43,4.41,4.71,4.71,0,0,1-3.77,1.63,4.39,4.39,0,0,1-3.57-1.69,5.49,5.49,0,0,1-1.31-3.58C75.23,104.94,75.52,104.28,76.09,104.28Z"/></g></g></svg>