<svg xmlns="http://www.w3.org/2000/svg" viewBox="0 0 30 43.73"><defs><style>.cls-1{fill:#ded9cd;}</style></defs><g id="Calque_2" data-name="Calque 2"><g id="Calque_5" data-name="Calque 5"><path class="cls-1" d="M15,30A15,15,0,1,1,30,15.34,15,15,0,0,1,15,30Zm6.79-12A14.09,14.09,0,0,0,22,11.47,14.84,14.84,0,0,0,18.85,5,14.41,14.41,0,0,0,15.58,2a.51.51,0,0,0-.66,0A17.28,17.28,0,0,0,9.58,7.82a12.4,12.4,0,0,0-1.42,7.87,16.08,16.08,0,0,0,1.9,5.42l.66,1.15-.05.06c-.41-.32-.83-.61-1.22-.95a13.32,13.32,0,0,1-4.2-7.43c-.07-.32-.1-.65-.19-1a1.54,1.54,0,0,0-.28-.42c-.12.11-.26.2-.36.31a.92.92,0,0,0-.11.29A12.86,12.86,0,0,0,4,20.48a10.24,10.24,0,0,0,5.73,7.17,12.77,12.77,0,0,0,7.49,1A9.55,9.55,0,0,0,25,22.52a12.92,12.92,0,0,0,.78-6.88,14.43,14.43,0,0,0-2.51-6.36A1.23,1.23,0,0,0,23.09,9c-.06-.05-.17-.1-.22-.07a.29.29,0,0,0-.08.22,1.94,1.94,0,0,0,.07.33c.09.53.19,1.07.25,1.61A10.15,10.15,0,0,1,23,13.83,15.2,15.2,0,0,1,21.77,18Z"/><path class="cls-1" d="M8.36,34.25a6.33,6.33,0,0,1,1.28.12,2.73,2.73,0,0,1,1,.38,1.8,1.8,0,0,1,.63.71,2.23,2.23,0,0,1,.23,1.09,2,2,0,0,1-.34,1.17,2.38,2.38,0,0,1-1,.76,2.37,2.37,0,0,1,1.35.87A2.43,2.43,0,0,1,12,40.83a2.47,2.47,0,0,1-.29,1.22,2.41,2.41,0,0,1-.78.84,3.73,3.73,0,0,1-1.11.48,5.47,5.47,0,0,1-1.28.15H3.75V34.25ZM8.08,38A1.55,1.55,0,0,0,9,37.74a.94.94,0,0,0,.37-.84,1,1,0,0,0-.12-.53A.87.87,0,0,0,9,36a1.37,1.37,0,0,0-.47-.16,3.43,3.43,0,0,0-.56-.05h-2V38Zm.13,3.94a2.91,2.91,0,0,0,.6-.06,1.55,1.55,0,0,0,.51-.2,1,1,0,0,0,.35-.37,1.15,1.15,0,0,0,.13-.59,1.17,1.17,0,0,0-.42-1,1.87,1.87,0,0,0-1.13-.31H5.9v2.55Z"/><path class="cls-1" d="M15.57,34.25v9.27H13.41V34.25Z"/><path class="cls-1" d="M17.37,37a4.38,4.38,0,0,1,2.46-2.6,5.25,5.25,0,0,1,2-.37,5.18,5.18,0,0,1,2,.37,4.42,4.42,0,0,1,1.51,1,4.57,4.57,0,0,1,1,1.56,5.45,5.45,0,0,1,.33,1.92,5.29,5.29,0,0,1-.33,1.89,4.44,4.44,0,0,1-1,1.53,4.38,4.38,0,0,1-1.51,1,5.18,5.18,0,0,1-2,.37,5.25,5.25,0,0,1-2-.37,4.38,4.38,0,0,1-1.51-1,4.3,4.3,0,0,1-.95-1.53A5.29,5.29,0,0,1,17,38.92,5.45,5.45,0,0,1,17.37,37Zm2,3.06a3,3,0,0,0,.46,1,2.26,2.26,0,0,0,.82.71,3,3,0,0,0,2.48,0,2.35,2.35,0,0,0,.82-.71,3,3,0,0,0,.46-1,4.34,4.34,0,0,0,.14-1.14,4.65,4.65,0,0,0-.14-1.18,3.16,3.16,0,0,0-.46-1A2.35,2.35,0,0,0,23.1,36a3,3,0,0,0-2.48,0,2.26,2.26,0,0,0-.82.71,3.16,3.16,0,0,0-.46,1,4.65,4.65,0,0,0-.14,1.18A4.34,4.34,0,0,0,19.34,40.06Z"/></g></g></svg>