<svg xmlns="http://www.w3.org/2000/svg" viewBox="0 0 200 254.23"><defs><style>.cls-1{fill:#708b75;}.cls-2{fill:#7d967f;}.cls-3{fill:#6b7f6c;}.cls-4{fill:#536752;}.cls-5{fill:#547259;}.cls-6{fill:#a0afa2;}.cls-7{fill:#fff;}.cls-8,.cls-9{fill:none;stroke-miterlimit:10;stroke-width:0.25px;}.cls-8{stroke:#6b7f6c;}.cls-9{stroke:#a0afa2;}</style></defs><g id="Calque_2" data-name="Calque 2"><g id="Calque_14" data-name="Calque 14"><path class="cls-1" d="M103,54.3c-.89-1.74-.77-2.51-.48-2.88.5-.65,1.55-.21,2.6-1,.69-.54.77-1.15,1.14-1.83.87-1.62,2.31-1.72,4.14-2.85,2.67-1.63,5.75-5.18,5.28-8-.12-.78-.55-1.79-.11-2.15s1,.06,1.41.18c3.14,1,7.39-3.42,9.27-5.37,1.65-1.72,2.49-2.61,2.85-4.16.1-.45.71-3.33-1.11-5.1a5.33,5.33,0,0,0-3.74-1.25c-1.8-.05-2.6.58-5.3,1.56-3.64,1.31-5.45,2-6.67,1.24-1.84-1.11-1.64-4.5-1.57-5.73a9.34,9.34,0,0,1,2.33-6c2-2.05,3.57-1.34,4.56-3.07,1.26-2.21-.86-4.27.37-6.15S122.5,0,123.74,0c4.63.19,6.3,3,9.24,1.89,1.23-.46,1.64-1.22,2.86-1.13,1.5.1,2.14,1.31,3.64,1.12.76-.1.75-.43,1.72-.63.17,0,2.19-.45,2.92.32,1.43,1.49-2.73,6.25-1.27,8,.66.78,1.59-.08,4.28.76,2,.63,3.14,1.64,3.86,1.13.53-.38.13-1.12.61-1.57,1.14-1.09,6.12.57,7.63,4,.64,1.44.39,2.59,1.26,3,1.17.55,2.41-1.14,3.86-.61,1,.37.74,1.3,1.8,2.34,1.81,1.77,3.65.13,6.7,1.9,1.29.75,1.69,1.46,3.32,2,1,.31,1.37.23,1.83.69.9.9.13,2,1,3.19.66.9,1.36.55,2.48,1.52.78.68,1.81,2.06,1.56,3-.46,1.74-5.13,2.37-8.9,2-5.66-.51-8.88-3.15-11.63-1.87-.3.14-1.56.77-3.45,1.54,0,0-1,.41-1.89.72-3.69,1.32-9.82.85-9.82.85-5.62-.43-8.93-1.68-9.7-.36a7.38,7.38,0,0,0-.27,1.88c-.19,2.06,0,2.22-.19,2.65-.33.66-1.19,1.05-6,1.35-3.37.21-4.5.11-5.31,1s-.22,1.26-.8,2.49c-1.3,2.72-4.48,2-6.07,4.79-.8,1.38-.38,2.21-1.3,2.8-1.1.72-2-.28-4,.06-1.06.17-2.12.87-4.21,2.26-1.29.87-2.32,1.64-3,2.18Z"/><path class="cls-2" d="M107.56,54.22l-4.93-.78a13.81,13.81,0,0,1-1.86,1.75c-2.1,1.63-3.55,1.7-5.59,2.93-1.55.93-1.38,1.29-3.61,3.21-4.06,3.47-4.78,2.42-6.4,4.43-2.62,3.26-1,6.39-4.06,8.82A9.14,9.14,0,0,1,78.37,76c-3.11,1.16-5,.64-7.47,1-3,.38-5.05,1.74-8,3.69-3.48,2.33-6.49,4.34-6.6,7.15-.08,2.15,1.64,2.41,2.59,5.81,1.13,4-.51,6.55.61,7.21S62.59,98.63,68.2,96c2.61-1.24,2.73-.88,4.5-2,3.5-2.13,3.22-3.68,6.15-5,2.15-1,2.26-.1,5.84-1.36,1.32-.47,2.28-.93,3.19-.49s1.23,1.74,1.52,2.59c.54,1.62,2,3.7,5.82,5.61A14.9,14.9,0,0,1,98.33,92c1.89-1.52,2.58-1.29,4.48-2.55,3.19-2.12,2.45-3.56,6.06-6.26,1.46-1.09,1.79-1,4-2.68,2.08-1.55,2.19-1.95,3.29-2.39a9.61,9.61,0,0,1,5.37-.19A16.16,16.16,0,0,1,125.37,79a6.17,6.17,0,0,1-.23-3.85c.49-1.68,1.55-2,2.79-3.79.26-.39,3-4.39,1.65-6.73-.85-1.51-2.52-.81-4.56-3.12-.74-.84-.94-1.41-1.8-1.78s-1.57-.18-3.22.09c-1.92.31-2.87.47-3.59,1.2-.37.39-.48.7-1,.94-.75.36-1.16,0-1.94.16-1.24.26-1.14,1.39-2.37,1.81-1,.33-1.3-.35-2.76-.19-1.64.17-2.22,1.13-2.66.83-.8-.54.51-4,.88-5a12.45,12.45,0,0,0,.94-2.94A9.12,9.12,0,0,0,107.56,54.22Z"/><path class="cls-3" d="M59.23,99.64a3.7,3.7,0,0,0,1.17.2c2.16,0,3.3-2,5.27-3.56,2.84-2.26,3.52-.54,6.71-2.85,2.09-1.52,2.82-3,5.73-4.61a15.87,15.87,0,0,1,2-.94c1.59-.57,2-.39,4.25-.86,2.52-.54,3.14-1,3.83-.56s.28.79,1.09,2.21a13.37,13.37,0,0,0,2,2.56c.56.6,1.06,1.07,1.42,1.39L95.1,94.8c-.71.73-1.77,1.74-3.12,2.89-3.3,2.82-5,4.21-7.21,5.13-2.54,1-3.84.77-4.7,2.14-.62,1-.77,2.45-.13,3.05.83.78,2.82-.09,3.92-.57,1.27-.55,1-.74,2-1.14,1.9-.77,3-.11,6.06-.51.8-.1,1.43-.24,1.81-.32.39,1.73,1,2.36,1.61,2.59.83.33,1.4-.2,2.21.25s.61,1.35,1.55,1.89a5.11,5.11,0,0,0,2,.35c1.34.11,1.59,0,1.85.21.54.51.3,2-.37,2.94-1.4,2.08-4.85,2-5.37,2-2.3,0-3.22-.93-4.7-.2a2.65,2.65,0,0,0-1.49,1.67c-.18.75,0,1.76.63,2s1-.61,2.29-.66c.9,0,1,.41,2.15.56s1.42-.22,2.64-.35c1.74-.18,2.13.46,3.56.46a5.69,5.69,0,0,0,4.25-1.84c1.66-2.11-.2-4.58,1.69-7,.86-1.12,1.25-.61,1.92-1.61,1.87-2.74-1.3-6.27-.2-10.13a3.19,3.19,0,0,0-2-4.62l4-3.53a3.93,3.93,0,0,0,1.06,2.74c1.07,1,2.32.49,3.64.88,3.88,1.16,5.54,9.07,4,10.13-.67.45-1.77-.43-2.3.16s.19,2-.24,3.13a10.43,10.43,0,0,1-.51,1.1s-.13.24-.23.37c-.4.52-1,.73-3.29,3-1,1-1.31,1.38-1.31,1.89,0,.9.85,1.28,1.17,2.73a3.8,3.8,0,0,1,.09,1.4c-.43,2.34-4.91,2-6.47,5.06a5.92,5.92,0,0,0-.6,2.73c.09,1.74,1.11,2.83.53,3.81a1.66,1.66,0,0,1-.79.65c-1.3.61-2.28-.62-4.4-.49a3,3,0,0,0-1.69.43c-.83.56-.94,1.46-1.34,3.92-.66,4.14-.91,5-.24,6.06a3.1,3.1,0,0,0,1.3,1.18c1.36.63,2.15-.37,3.66,0,1.67.39,1.53,1.81,3.19,2.14,1.5.31,2.42-.71,3.2-.08a1.52,1.52,0,0,1,.4,1.73c-.31.6-1,.44-2.12,1.06-.88.52-1,1-1.53,1.42-2,1.69-5.69-1.12-7.11.19-.85.78-.8,2.94.25,4,1.68,1.77,4.64-.63,9.9.27,1.82.32,5.47.87,6.84,3.37a16.38,16.38,0,0,1,1.45,3.72c.29,1.22.29,2,.94,2.5a2.4,2.4,0,0,0,2.44.32c1.17-.58.8-2.19,1.86-3.77.94-1.38,2.37-1.85,4.23-2.46,3.7-1.21,5.68-.16,7.91-1.86a10.49,10.49,0,0,0,1.39-1.3c1.27-1.4,1.21-2,1.89-2.84,1.14-1.3,3.42-1.46,8-1.72.93,0,1.7-.08,2.22-.09a14.76,14.76,0,0,1,.27,3.16,16.3,16.3,0,0,1-.54,3.77c-1,3.8-2.45,4.43-2.95,7.38a4.17,4.17,0,0,1-.55,1.79c-.64,1-1.46,1.07-1.84,2.09a2.1,2.1,0,0,0-.08,1.42c.28.79.95.75,1.14,1.32.33,1-1.54,1.86-1.38,3.17.1.86.92.71,1.43,1.81.69,1.5-.46,2.62.18,4.55a4.66,4.66,0,0,0,.71,1.34c-.66.91-1.33,1.82-2,2.74a3.88,3.88,0,0,0-1.13,2c-.18.89.13,1.2-.09,2-.29,1.07-1,1.11-1.57,2.12-.79,1.43.2,2.16-.39,3.36-1,2-4.29,1.24-4.84,3a18.1,18.1,0,0,1-.54,3,1.33,1.33,0,0,1-.28.49,2.55,2.55,0,0,1-2.12.44c-3.51-.45-7.24,2-9.79-.06-.46-.37-.11-.27-2.55-4-1.22-1.88-1.21-1.75-1.66-2.53-1.4-2.42-1.11-3-2.26-5-1.29-2.3-1.79-1.86-3-4.13s-.84-2.92-1.92-3.88c-1.4-1.25-2.63-.67-3.65-1.73-.64-.66-1.22-2-.52-5a5.52,5.52,0,0,0,4.26-1.61,5.14,5.14,0,0,0,1.17-5.33c-.79-1.82-2.78-2-6.67-3.34a78.48,78.48,0,0,1-14.95-7,22.28,22.28,0,0,0-5.24-2.83c-2.85-1-3.41-.33-7-1.17-4.24-1-4.63-2.12-7.64-2.09a9.78,9.78,0,0,0-4.79,1.06c-1.55.83-1.37,1.37-3.68,2.93-1.55,1-2,1.06-3.84,2.32s-1.65,1.4-2.52,1.93c-3.64,2.24-6.56-.57-9.93,1.64-.85.57-1.22,1.12-2.93,2.19s-2,.88-2.71,1.5c-2,1.68-.76,3.58-2.6,5.82-1.29,1.57-2.21,1-3.66,2.83-1.3,1.6-.67,2.16-1.8,4-1.81,2.95-4.2,2.78-5.67,5.78a7.91,7.91,0,0,0-.73,2.39l-4.2-.52a8,8,0,0,1,.07-3.47c.43-1.65,1.15-2.05,1.43-3.25.59-2.52-1.57-5-2-5.48-2.54-2.95-4.92-1.65-7-4.37a7.65,7.65,0,0,1-1.33-6.39c.16-.61.32-.78,2-3.49,2.48-4.11,2.18-3.82,2.52-4.24,2.73-3.37,6.6-3.47,6.48-4.8-.07-.89-1.81-.83-3-2.78-.59-1-.28-1.29-.86-2.27-1.14-1.9-2.92-1.85-3.2-2.81-.42-1.43,2.92-3.59,5.62-5.27,6.35-3.95,9.68-5.61,14.69-8.73,3.77-2.34,5.86-3.88,6.54-4.38,4.44-3.3,4.1-3.75,5.74-4.55a5.25,5.25,0,0,0,2.48-2.09,8.12,8.12,0,0,1,.46-1c.51-.71,1.08-.75,2.9-1.59,1.31-.61,1.82-1,1.92-1.47a1.29,1.29,0,0,0,0-.56c-.42-1.5-2.32-2.14-3-3.51s.05-3.65,1.1-4.9A5.63,5.63,0,0,1,59.23,99.64Z"/><path class="cls-4" d="M127.76,83.27a3.26,3.26,0,0,1,0-2.1l2.53-.92a10.28,10.28,0,0,1,1.09-.59c3-1.34,4.44,0,6.64-1,1.65-.77,1.33-1.77,3.75-3a4,4,0,0,1,2.72-.61c.69.15.8.44,2.17,1.42,2,1.41,2.7,1.47,2.84,2.19s-.39,1.29-1.12,2.12c-1.91,2.19-3.39,2.09-3.55,3.13-.23,1.5,2.67,2.68,2.26,4.17a2.74,2.74,0,0,1-.75,1c-.9.94-1.66,1-1.84,1.74a1.35,1.35,0,0,0,.13.94c.5.93,2.23.84,6.63.68,3.55-.13,4.2-.13,5.16.29s.91.66,2.75,1.67c2.14,1.17,2.5,1,3,1.67a4.2,4.2,0,0,1-.09,4.68c-.82,1.08-2.09,1.2-2.13,2.08,0,.53.42.61.61,1.35a3.16,3.16,0,0,1-1.07,3c-1,.84-1.71.19-2.59.83-.37.28-.95.92-.77,6.66.09,2.76.25,3.3.53,3.84a7,7,0,0,0,3.12,2.81c2.54,1.46,3.4.77,4.54,1.79,2.27,2,1.95,7.44-.39,9.07-1.19.83-2.07.09-3.44,1.09-1,.7-1.09,1.47-2.27,4.59-1.28,3.39-1.94,5.09-2.84,5.72-1.34.93-2.3.46-3.81,1.74-1.1.93-1,1.55-1.75,2.36-2.66,3-8.34-.2-11,2.71-1.13,1.25-.28,2-1.62,3.38-1.63,1.63-4.2,1.87-6.56,2.09-1.84.16-3,0-4.61.77a5.48,5.48,0,0,0-1.92,1.25c-1.49,1.58-.94,3.31-2.3,4.07a2.44,2.44,0,0,1-1.72.19,2.5,2.5,0,0,1-1.63-1.57c0-.08,0-.05-.39-1.76v-.07a9,9,0,0,0-1.08-2.42c-1.83-2.68-6.15-3.75-6.15-3.75-5.82-1.46-9.08,1.25-10.79-.69-1-1.16-1-3.36,0-4.14,1.5-1.3,5.14,1.48,7.11-.19.46-.39.53-.77,1.29-1.27,1.17-.76,2.12-.59,2.36-1.21a1.43,1.43,0,0,0-.52-1.42c-1-.81-2.15.37-3.72-.25-1.29-.52-1.09-1.54-2.39-1.89-.93-.25-1.21.22-2.82.11a3.68,3.68,0,0,1-2.17-.53c-.53-.44-.7-1.18-.39-4.53.45-4.74,1-5.83,1.84-6.42a3,3,0,0,1,1.29-.58c.5-.09.81,0,2.21.36,1.65.41,2.09.5,2.59.28a1.68,1.68,0,0,0,.79-.65c.67-1.12-.74-2.42-.71-4.42a5.09,5.09,0,0,1,.92-2.69c1.9-3,5.66-2.25,6.23-4.2.43-1.5-1.66-2.25-1.32-4.33.23-1.45,1.49-2.58,2.9-3.85s1.92-1.24,2.3-2.1c.74-1.66-.45-3.2.32-3.89s1.74.37,2.48-.19c1.19-.89-.09-4.35-.22-4.68a7.94,7.94,0,0,0-2.84-4c-2.55-1.76-4.84-.53-5.62-1.9s.46-4,2.12-4.77c1-.46,1.85-.09,3.61-.91a1.83,1.83,0,0,1,.93-.28c1.29,0,2.13,2,2.2,2.15.69,1.65-.13,2.31.53,3.82.55,1.27,1.22,1,2.15,2.46,1.18,1.87.52,3,1.59,3.84s2.82.87,3.54.06c1.1-1.21-.89-3.8.29-5,.7-.73,1.6,0,2.34-.78,1.19-1.18-.58-3.47.71-5.37.63-.92,1.36-.86,1.53-1.69a2.49,2.49,0,0,0-1.71-2.63c-1.14-.23-1.79,1.08-2.82.73C128.19,84.59,127.86,83.59,127.76,83.27Z"/><path class="cls-5" d="M.88,208.24a1.45,1.45,0,0,1-.85-1c-.34-1.47,2-2.33,3.74-4.8,2.5-3.55,1.11-6.72,3.46-7.89.84-.42,1,0,3.06-.67s2.12-1.19,3.38-1.34c2-.25,2.55.92,4.12.45a4.22,4.22,0,0,0,2.34-2.12c.71-1.47,0-2.38.26-4.24a7.25,7.25,0,0,1,1.91-3.71l4.2.52a8.08,8.08,0,0,1,.08,2.94c-.37,2.26-1.55,3-2.81,5.58-.29.59-2.32,4.78-1.19,5.75.73.62,2.69-.16,3.9-1.28,1.45-1.34,1.28-2.68,2.7-5.23a16.18,16.18,0,0,1,2.27-3.12A10.81,10.81,0,0,0,36,190.64c1.79.48,2.89.23,3.75,1.16a3.14,3.14,0,0,1,.47,3.54c-.71,1.12-2,.56-4.37,1.75-1.72.84-1.44,1.3-3.49,2.48-2.53,1.46-3,.81-4.56,2-1.9,1.49-1.46,2.75-3.36,3.78a6.69,6.69,0,0,1-3.28.73c-1.78,0-2-.72-3.58-.69-1.74,0-1.81,1-3.65,1.15s-2.25-.62-4.76-.83a8.65,8.65,0,0,0-4.61.44C2.63,207,1.88,208.58.88,208.24Z"/><path class="cls-6" d="M98.86,170.3l8.79,1.91a4.14,4.14,0,0,0-.29.83,4.06,4.06,0,0,0,.73,3.47c1.23,1.83,2.51,1.28,3.91,2.91,1.13,1.31.6,2,2,4.31a31.11,31.11,0,0,0,2.2,2.79c2.22,3.06,2,4.79,4.32,8.22.48.71.55.74,1.45,2.06,1.28,1.86,1.38,2.18,1.94,2.47s1.49.26,3.06,0c1.4-.19,1.7-.37,2.79-.56,3.1-.55,3.95.38,4.94-.42,1.2-1,0-2.38,1.3-3.8s3.91-1.28,4.43-2.71a5.24,5.24,0,0,0,.22-.93c.09-.83-.14-1,0-1.58a3.49,3.49,0,0,1,.85-1.45c.61-.79.75-.69,1-1.12s0-.69.15-1.93a3.69,3.69,0,0,1,.29-1.31,2.61,2.61,0,0,1,1-1.08c.66-.92,1.33-1.83,2-2.74,1.66.45,2.43.17,2.84-.19,1.08-.95.53-3.25,1.47-4.18a3.44,3.44,0,0,1,1.57-.86c.81-.17,1,.15,1.87,0,1.22-.18,1.46-1,2.05-.83s.57.73,1.32,2.71c.84,2.19,1.07,2.33,1.25,2.38.83.23,1.3-1.34,3.27-1.92,1.08-.32,1.21.08,2-.3,1.35-.63,1.19-1.79,2.54-2.42.92-.42,1.14,0,2.12-.43,1.22-.58,1.13-1.42,2.12-1.74s1.24.43,2.66.38,1.7-.89,3.12-.89c1.16,0,1.18.54,2.47.73,1.8.25,2.31-.75,4.18-.73a4.93,4.93,0,0,1,3.58,1.35c1,1.14.86,2.78.68,5.57a9.46,9.46,0,0,0,0,3.36c.28,1.15.65,1.24,1,2.47.44,1.69-.14,2,.24,3.4a6.49,6.49,0,0,0,2.34,3.28,8.5,8.5,0,0,0,2.77,1.36c3.26,1.24,2.43,7.18,5.06,17,1.19,4.44,2.46,7.31,1.25,11.12a12.75,12.75,0,0,1-1.42,3c-2.66,4.48-5.27,4.6-8.89,9.31-1.75,2.29-1.45,2.67-2.58,3.41-2.79,1.84-6,.45-7.44,2.49-.59.86-.25,1.42-1.05,2.11-1,.91-2.2.41-3.1,1.43-.58.66-.28,1.08-.85,1.55-.89.74-1.85-.08-3,.4-1.51.63-1,2.58-2.45,3.62s-3.52.32-5.19-.21c-3.58-1.15-4.2-3-5.87-2.58s-1.46,2.2-3.86,3.22a11.77,11.77,0,0,1-3,.59c-3.11.39-3.25-.1-4.18.34-2.37,1.09-2.08,4.48-3.76,4.65-.67.06-1.33-.42-2.35-1.16-1.27-.93-1.2-1.39-1.78-1.55-1.73-.49-3.21,3.52-5.28,3.35-1.09-.09-1.29-1.25-3.48-4.32-3-4.3-4-4-4.77-6.31s.09-3.39-1.16-5.51c-.81-1.38-1.45-1.44-2.16-3-.84-1.84-.28-2.44-1-3.84-.9-1.64-2-1.31-3.43-2.91-2.07-2.26-.85-3.91-2.56-5.45-2.19-2-5.24-.2-6.4-2-.73-1.15-.36-3.17.34-4.42.58-1,1.24-1.27,1.25-2,0-1.18-1.59-2.11-2.36-2.54-3.67-2-5.61-.51-7.44-2.17-1.5-1.35-1.54-3.61-1.6-6.28a9.08,9.08,0,0,1,1-5.05c.93-1.62,1.67-1.38,2.59-2.87,1.21-2,1-4.2.72-6.43a12.86,12.86,0,0,0-1.74-5.86c-2.52-3.95-6.8-4.38-6.66-6.64a3.8,3.8,0,0,1,1-2c.93-.94,1.84-.77,2.61-1.6A3.45,3.45,0,0,0,98.86,170.3Z"/><path class="cls-4" d="M93.77,105.66a14.49,14.49,0,0,0,2.76-1.38c3.5-2.23,3.13-4,6.66-6.58.92-.67,1.71-1.09,4.54-3.06l1.33-.94a4.88,4.88,0,0,1,1.16,1.78,5.78,5.78,0,0,1,0,3.47c-1.07,4.71,1.92,7,.13,9.67-.93,1.4-1.83,1-2.47,2.41-.78,1.77.32,3-.63,5.24A4.72,4.72,0,0,1,106,118a5.47,5.47,0,0,1-3.47,1.23c-1.54.08-1.44-.41-3.24-.42s-2,.52-3.65.3a6.69,6.69,0,0,0-2.23-.26c-.94.15-1.29.56-1.76.34S91,118,91,117.37a2.42,2.42,0,0,1,.69-1.4,2.83,2.83,0,0,1,1.74-.82,3.54,3.54,0,0,1,1.42.13,11.59,11.59,0,0,0,3.9.24,4.23,4.23,0,0,0,4.37-4.16.7.7,0,0,0-.08-.45c-.24-.38-.9-.29-1.58-.29a4.64,4.64,0,0,1-2.56-.47c-1-.64-.79-1.73-1.65-1.92-.17,0-.13,0-1.1,0a2.47,2.47,0,0,1-1-.21,3.35,3.35,0,0,1-.35-.22A3,3,0,0,1,93.77,105.66Z"/><path class="cls-7" d="M22.22,196.48c0-2.14.91-3.69,2.4-6.58a20.82,20.82,0,0,0,1.68-3.65c.65-2.51-.26-3,.18-4.81.8-3.24,4-2.68,6.46-7.05.83-1.46,1-2.37,2.23-3.81s2-1.21,3-2.44c2.11-2.53.61-5.12,2.5-6.42,1.14-.78,2-.09,3.71-1.24,1.05-.74.8-1,1.75-1.71.41-.3,1.31-.83,4.84-1,2.74-.09,2.43.22,3.47,0,1.62-.29,2-1,5.85-3.57l1-.66c.48-.31.83-.52.93-.58,1.18-.72,2-1.45,3.52-2.5a17.92,17.92,0,0,1,1.74-1.12,8,8,0,0,1,4.47-.54c2.62.3,3.29,1.12,5.84,1.88,3.48,1,4,0,7.25.86,2.49.62,3.24,1.47,7.07,3.67a97.62,97.62,0,0,0,9.05,4.5c7.51,3.23,10.58,2.92,11.76,5.69a5.25,5.25,0,0,1-.6,5.2c-1.67,2.06-4.57,1.77-4.83,1.74l-8.62-2.13a45.8,45.8,0,0,0-5.07-.83,28.89,28.89,0,0,0-5.33-.25c-2.49.16-3,.6-5.3.63a19,19,0,0,1-4.13-.43c-6-1.1-15.19,3.12-18.61,4.69-5.72,2.62-8.43,4.82-11.09,3.54-1.07-.51-2-1.51-4.1-1.93a7.32,7.32,0,0,0-4.16.21c-1.58.62-1.32,1.33-4.11,3.73-1.76,1.52-2.52,1.81-3.75,3.3a14.45,14.45,0,0,0-1.49,2.22l-.27,2.88c-.33.44-.82,1.1-1.35,2a33.71,33.71,0,0,0-1.74,3.24c-1.12,2.32-.89,2.22-1.27,2.7-1.28,1.59-3.66,2.45-4.51,1.73A1.54,1.54,0,0,1,22.22,196.48Z"/><path class="cls-3" d="M118.63,87.3q1.47-2,3.13-4c1.22-1.5,2.42-2.91,3.61-4.25,1.7.77,2.23,1.61,2.38,2.25s-.19,1.61.36,2.66a1.22,1.22,0,0,0,.5.61c.6.31,1.15-.3,2.16-.46a2.8,2.8,0,0,1,2.61.79,2.55,2.55,0,0,1,.1,2.28c-.41.94-1,.73-1.46,1.6s0,1.23-.26,3.73c-.08.84-.15,1.05-.29,1.25-.62.89-1.73.38-2.37,1-1,1.09.84,3.54-.3,4.87a2.25,2.25,0,0,1-1.54.67,3,3,0,0,1-2.55-1.08c-.39-.47-.23-.62-.74-1.89a8.89,8.89,0,0,0-1.32-2.48c-.8-1-1.23-.88-1.56-1.62s0-1.47,0-2.31S120.58,88.78,118.63,87.3Z"/><path class="cls-7" d="M125.37,79a13.42,13.42,0,0,1-1.23,2.43,6.44,6.44,0,0,1-.57.83,32.12,32.12,0,0,0-3,3,6.84,6.84,0,0,1-1.89,2,7,7,0,0,1-2.18.81c-1.29.28-1.65,0-2.36.38s-.71.71-1.59,1.82c-1.34,1.69-2,1.69-3.93,4-.57.66-.43.57-.8,1-2.27,2.54-3.89,2.07-5.9,4.17-.91.94-.57,1-2.16,2.94a10.32,10.32,0,0,1-2.59,2.53,13.53,13.53,0,0,1-4,.88,23.62,23.62,0,0,1-5.43.5,3.36,3.36,0,0,0-1.26,0c-1.06.26-1.15,1-2.42,1.49-.61.26-.61.1-1.55.45a3.48,3.48,0,0,1-1.33.37,1.78,1.78,0,0,1-1-.26,1.75,1.75,0,0,1-.67-.83,2.41,2.41,0,0,1,0-1.57,3.35,3.35,0,0,1,1-1.7,3.88,3.88,0,0,1,1.51-.76,25.48,25.48,0,0,0,4.88-2,16.67,16.67,0,0,0,2-1.44,47.16,47.16,0,0,0,4.74-4.21C95,94.44,95,94.37,95.74,93.73a27.87,27.87,0,0,1,3.47-2.43c3.28-2.08,3.73-2.14,4.72-3.19.59-.62.51-.68,1.76-2.1a16.72,16.72,0,0,1,2.45-2.46c.08-.07.75-.48,2.07-1.31,1.58-1,1.74-1.08,2.06-1.32,1.15-.88,1-1.14,1.92-1.82a8.46,8.46,0,0,1,3.52-1.51,8.8,8.8,0,0,1,3.22-.13,3,3,0,0,1,.47.11c.27.07.87.2,1.36.33a8.42,8.42,0,0,1,1.42.52A11.63,11.63,0,0,1,125.37,79Z"/><path class="cls-8" d="M125,218.23a25.92,25.92,0,0,0-1.87-7.65c-.3-.72-.62-1.38-.94-2"/><path class="cls-8" d="M125.4,218.23a21.72,21.72,0,0,1,.27-10.24,20.73,20.73,0,0,1,1.73-4.33"/><path class="cls-3" d="M122,208.7a.83.83,0,0,1-.85.46.87.87,0,0,1-.6-.46,3,3,0,0,1-.71-1.44,2.87,2.87,0,0,1,0-.91l-.67-.7a.9.9,0,0,1,.16-.19.87.87,0,0,1,.2-.16.66.66,0,0,0-.24-.15.92.92,0,0,0-.36-.06l-1-2.19a.31.31,0,0,1,0-.4.27.27,0,0,1,.2,0,6.61,6.61,0,0,0,1.14,1,6,6,0,0,0,.73.45,5.33,5.33,0,0,1,1.31.38c.17.08.33.15.47.23l-.57,1.5a7.49,7.49,0,0,1,.64-.55c.41-.29.58-.34.71-.29a.25.25,0,0,1,.11.09,1.85,1.85,0,0,1,.5.73,2.49,2.49,0,0,1-.83,2.54Z"/><path class="cls-3" d="M126.76,203.57A2.6,2.6,0,0,1,127,203a1.22,1.22,0,0,1,.53-.68,1,1,0,0,1,.78.1l-.17-.29a4.58,4.58,0,0,1,.76-.47,3.94,3.94,0,0,1,1.62-.39c.09.43.19.87.29,1.31l.38-1.13a4.94,4.94,0,0,1,1.19.52,4.79,4.79,0,0,1,1.17,1,11.69,11.69,0,0,0-2.41,0,11,11,0,0,0-2.34.48l-.75.33-.59,0-.24-.18h-.43Z"/><path class="cls-9" d="M73,115a26.31,26.31,0,0,0-1.87-7.65c-.3-.71-.62-1.38-1-2"/><path class="cls-9" d="M73.39,115a21.59,21.59,0,0,1,.27-10.24,21.21,21.21,0,0,1,1.72-4.32"/><path class="cls-6" d="M70,105.45a.84.84,0,0,1-.85.45.87.87,0,0,1-.6-.45,3.11,3.11,0,0,1-.72-1.45,3.15,3.15,0,0,1,0-.91l-.68-.7a1.24,1.24,0,0,1,.16-.19l.21-.16a1.12,1.12,0,0,0-.24-.15.87.87,0,0,0-.36,0c-.32-.74-.64-1.47-1-2.2a.3.3,0,0,1,.06-.39.24.24,0,0,1,.19,0A6.74,6.74,0,0,0,68,100.72a5.39,5.39,0,0,1,1.32.38l.47.24-.57,1.49a5.94,5.94,0,0,1,.64-.54c.4-.3.57-.35.7-.29a.41.41,0,0,1,.12.08,1.87,1.87,0,0,1,.5.74,2.51,2.51,0,0,1-.84,2.54Z"/><path class="cls-6" d="M74.74,100.32a3.71,3.71,0,0,1,.21-.61c.16-.33.28-.58.54-.68a.92.92,0,0,1,.78.1l-.17-.29a4,4,0,0,1,.76-.48A3.93,3.93,0,0,1,78.47,98c.1.44.2.87.29,1.31l.38-1.13a4.76,4.76,0,0,1,2.36,1.54,11,11,0,0,0-2.4,0,11.83,11.83,0,0,0-2.35.47l-.74.34h-.59l-.24-.18H75Z"/><path class="cls-9" d="M77.41,147a25.92,25.92,0,0,0-1.87-7.65c-.3-.72-.62-1.39-.94-2"/><path class="cls-9" d="M77.84,147a21.76,21.76,0,0,1,.27-10.25,20.85,20.85,0,0,1,1.73-4.32"/><path class="cls-6" d="M74.4,137.42a.82.82,0,0,1-.85.45.87.87,0,0,1-.6-.45,3.06,3.06,0,0,1-.71-1.45,2.81,2.81,0,0,1,0-.9l-.67-.7a.67.67,0,0,1,.16-.19.87.87,0,0,1,.2-.16.66.66,0,0,0-.24-.15.92.92,0,0,0-.36-.06l-1-2.19a.3.3,0,0,1,0-.4.27.27,0,0,1,.2,0,6.61,6.61,0,0,0,1.14,1,6,6,0,0,0,.73.45,5.45,5.45,0,0,1,1.31.38,4.12,4.12,0,0,1,.47.23l-.57,1.49c.25-.23.47-.41.64-.54.41-.29.58-.34.7-.29a.24.24,0,0,1,.12.09,1.85,1.85,0,0,1,.5.73,2.49,2.49,0,0,1-.83,2.54Z"/><path class="cls-6" d="M79.2,132.29a2.6,2.6,0,0,1,.21-.61c.15-.32.27-.57.53-.68a1,1,0,0,1,.78.1l-.17-.29a4.58,4.58,0,0,1,.76-.47,3.94,3.94,0,0,1,1.62-.39c.09.43.19.87.29,1.3l.38-1.12a4.57,4.57,0,0,1,1.19.52,4.79,4.79,0,0,1,1.17,1,11,11,0,0,0-4.75.44l-.75.33-.59,0-.24-.18H79.2Z"/><path class="cls-9" d="M17.84,197.13A26,26,0,0,0,16,189.48c-.3-.71-.62-1.38-.94-2"/><path class="cls-9" d="M18.27,197.13a21.72,21.72,0,0,1,.27-10.24,21,21,0,0,1,1.73-4.33"/><path class="cls-6" d="M14.83,187.61a.83.83,0,0,1-.85.45.87.87,0,0,1-.6-.45,3.12,3.12,0,0,1-.71-1.45,2.87,2.87,0,0,1,0-.91l-.68-.7a1.37,1.37,0,0,1,.17-.19,1.27,1.27,0,0,1,.2-.16,1.12,1.12,0,0,0-.24-.15.87.87,0,0,0-.36-.05l-1-2.2c-.09-.17,0-.34.05-.39a.24.24,0,0,1,.19,0,6.54,6.54,0,0,0,1.88,1.47,5.45,5.45,0,0,1,1.31.38l.47.24L14.1,185a5.94,5.94,0,0,1,.64-.54c.41-.3.58-.35.7-.29a.23.23,0,0,1,.12.08,1.92,1.92,0,0,1,.5.73,2.48,2.48,0,0,1-.84,2.55Z"/><path class="cls-6" d="M19.63,182.47a2.55,2.55,0,0,1,.21-.6c.15-.33.27-.58.53-.68a.92.92,0,0,1,.78.1L21,181a4,4,0,0,1,.76-.48,3.94,3.94,0,0,1,1.62-.39c.09.44.19.87.29,1.31l.38-1.13a4.65,4.65,0,0,1,1.19.53,5,5,0,0,1,1.17,1,11.1,11.1,0,0,0-2.41,0,10.92,10.92,0,0,0-2.34.47l-.75.34H20.3l-.24-.18h-.43Z"/><path class="cls-9" d="M121.44,188.63a25.68,25.68,0,0,0-1.87-7.65c-.3-.71-.61-1.38-.94-2"/><path class="cls-9" d="M121.87,188.63a21.85,21.85,0,0,1,.27-10.24,21,21,0,0,1,1.73-4.33"/><path class="cls-6" d="M118.43,179.11a.83.83,0,0,1-.84.45.84.84,0,0,1-.6-.45,3.11,3.11,0,0,1-.72-1.45,2.87,2.87,0,0,1,0-.91l-.67-.7a1.24,1.24,0,0,1,.16-.19,1.27,1.27,0,0,1,.2-.16,1.12,1.12,0,0,0-.24-.15,1.14,1.14,0,0,0-.35-.06c-.33-.73-.65-1.46-1-2.19a.3.3,0,0,1,.06-.39.24.24,0,0,1,.19,0,6.57,6.57,0,0,0,1.14,1,6,6,0,0,0,.73.45,5.52,5.52,0,0,1,1.32.38l.46.24-.57,1.49a5.9,5.9,0,0,1,.65-.54c.4-.3.57-.35.7-.29a.36.36,0,0,1,.12.08,1.87,1.87,0,0,1,.49.73,2.5,2.5,0,0,1-.83,2.55Z"/><path class="cls-6" d="M123.23,174a2.55,2.55,0,0,1,.21-.6c.16-.33.28-.58.54-.69a.92.92,0,0,1,.77.11l-.16-.29a3.45,3.45,0,0,1,.76-.48,3.9,3.9,0,0,1,1.61-.39c.1.44.19.87.29,1.31l.38-1.13a4.85,4.85,0,0,1,1.2.53,4.71,4.71,0,0,1,1.16,1,11.07,11.07,0,0,0-2.41,0,11.19,11.19,0,0,0-2.34.47l-.75.34h-.58l-.24-.18h-.44Z"/></g></g></svg>