<svg xmlns="http://www.w3.org/2000/svg" viewBox="0 0 15.67 17.03"><defs><style>.cls-1{fill:none;stroke:#6b7f6c;stroke-miterlimit:10;stroke-width:0.25px;}.cls-2{fill:#6b7f6c;}</style></defs><g id="Calque_2" data-name="Calque 2"><g id="Calque_14" data-name="Calque 14"><path class="cls-1" d="M7.12,17A26,26,0,0,0,5.25,9.35c-.3-.71-.62-1.38-.94-2"/><path class="cls-1" d="M7.55,17A21.72,21.72,0,0,1,7.82,6.76,21,21,0,0,1,9.55,2.43"/><path class="cls-2" d="M4.11,7.48a.83.83,0,0,1-.85.45.87.87,0,0,1-.6-.45A3,3,0,0,1,2,6a2.87,2.87,0,0,1,0-.91l-.68-.7a2.31,2.31,0,0,1,.16-.19l.21-.16a1.12,1.12,0,0,0-.24-.15.87.87,0,0,0-.36,0l-1-2.2C0,1.5,0,1.33.1,1.28a.24.24,0,0,1,.19,0,7,7,0,0,0,1.14,1,7,7,0,0,0,.74.45,5.45,5.45,0,0,1,1.31.38L4,3.37,3.38,4.86A5.94,5.94,0,0,1,4,4.32c.41-.3.57-.35.7-.29a.23.23,0,0,1,.12.08,1.92,1.92,0,0,1,.5.73A2.5,2.5,0,0,1,4.5,7.39Z"/><path class="cls-2" d="M8.91,2.34a3,3,0,0,1,.2-.6c.16-.33.28-.58.54-.68a.92.92,0,0,1,.78.1L10.26.87A4,4,0,0,1,11,.39,3.94,3.94,0,0,1,12.64,0c.09.44.19.87.29,1.31L13.31.18A4.65,4.65,0,0,1,14.5.71a5,5,0,0,1,1.17,1,11.1,11.1,0,0,0-2.41,0,10.92,10.92,0,0,0-2.34.47l-.75.34H9.58l-.24-.18H8.91Z"/></g></g></svg>