<svg xmlns="http://www.w3.org/2000/svg" viewBox="0 0 301.26 1461.69"><defs><style>.cls-1{fill:#ce5f2a;}.cls-2{fill:#b44e21;}.cls-3,.cls-4,.cls-5,.cls-6{fill:#9e3e20;}.cls-4,.cls-5,.cls-6{stroke:#9e3e20;stroke-linecap:round;stroke-linejoin:round;}.cls-4{stroke-width:0.68px;}.cls-5{stroke-width:0.58px;}.cls-6{stroke-width:0.57px;}.cls-7{fill:#d98845;}.cls-8{fill:#dda34f;}.cls-9{fill:#e0a4c6;}.cls-10{fill:#a02c5c;}.cls-11{fill:#a02c5b;}.cls-12{fill:#8d1b49;}.cls-13{fill:#b74078;}.cls-14{fill:#d67fae;}.cls-15{fill:#fff;}.cls-16{fill:#9a9f65;}.cls-17{fill:#6c81b4;}.cls-18{fill:#98a4d3;}.cls-19{fill:#4d5fa5;}.cls-20{fill:#7685bf;}.cls-21{fill:#9dacd8;}.cls-22{fill:#5d6eb0;}.cls-23{fill:#8793c8;}.cls-24{fill:#5465aa;}.cls-25{fill:#7280bc;}.cls-26{fill:#2e2b5e;}.cls-27{fill:#56539b;}.cls-28{fill:#708b75;}</style></defs><g id="Calque_2" data-name="Calque 2"><g id="Calque_4" data-name="Calque 4"><path class="cls-1" d="M79.88,189.32a7.33,7.33,0,0,1-.14-2.43,7.2,7.2,0,0,1,.82-2.6,22.31,22.31,0,0,1,8.15-8.59l1-.67a17.33,17.33,0,0,1,1.18-1.56,15.64,15.64,0,0,1,1.34-1.42,21.35,21.35,0,0,1,6.85-.8,21.75,21.75,0,0,1,9.42,2.69,1.58,1.58,0,0,1,0,1.19c-.2.39-.53.47-.86,1a2.63,2.63,0,0,0-.35.85.77.77,0,0,0,.1.15,1.16,1.16,0,0,0,.89.38c.32,0,.36-.12.75-.17a1.88,1.88,0,0,1,.73,0,.61.61,0,0,1,.32.29c.19.37-.07,1-.7,1.47-.58.11-1.05.17-1.36.21-1.05.12-1.7.12-2,.56a1,1,0,0,0-.09.18c-.73.92-1.49,1.94-2.24,3.08a39.45,39.45,0,0,0-3.12,5.78l-2.79,1.78.5,1.19,6.44-.16a8,8,0,0,1,3,.69,7.7,7.7,0,0,1,2.35,1.63l13,15.76,16.73,15,16.78,19.64a71.24,71.24,0,0,1,5,82.55,70.06,70.06,0,0,1-34.46,27.39,79.23,79.23,0,0,1-26.67,10.27c-34,6.31-61.22-12.37-67.89-17.23C27.39,344.29,11.77,334,4.09,313.48-6.2,286,5.92,262,8,258.08a118.49,118.49,0,0,1,37.17-39.93c5.18-5.28,9.24-9.68,12-12.7,6.41-7.11,9.45-11,15.52-13.81A30.36,30.36,0,0,1,79.88,189.32Z"/><path class="cls-2" d="M124.81,238.84a10.35,10.35,0,0,1,1.17-6.73c2.7-4.48,9.55-6.45,16.72-4.14a82.9,82.9,0,0,1,22.63,29.15,80.26,80.26,0,0,1,5.55,17.1,75.73,75.73,0,0,1,1.39,20.49,70,70,0,0,1-5.46,22.14,74.13,74.13,0,0,1-13.18,22.66c-26.75,31.27-70.49,27.78-74.76,27.37-36.75-3.53-58.73-28.47-63.56-34.23a32,32,0,0,1,24.55-30.52c6.81-.69,17.1-1.92,29.52-4.17,30.09-5.46,46.15-7.81,52.81-18.57C133.44,261.25,125.73,241.14,124.81,238.84Z"/><path class="cls-3" d="M15.31,332.65a90.82,90.82,0,0,0,41,29.66A93.4,93.4,0,0,0,97,366.68c7.74-.86,40.87-4.55,60.89-32a73.58,73.58,0,0,0,11.92-25.88,70.11,70.11,0,0,0,2.29-29.22,69.25,69.25,0,0,0-4.58-17c-.06-.16-1.05-2.76-3.38-3.13a4.18,4.18,0,0,0-3.1.88c-2.88,2.29-1.62,8.44-1.37,9.85,2.57,14.46-9.84,40.79-10.59,42.36-3.31,6.94-10.66,19.16-27.52,30.29A109.79,109.79,0,0,1,74.44,352,111.1,111.1,0,0,1,15.31,332.65Z"/><path class="cls-3" d="M98.38,191.82a5.71,5.71,0,0,1-.25-.64c0-.17-.09-.33-.13-.47a2.78,2.78,0,0,0,1.49-.4,3.54,3.54,0,0,0,1.2-1.64l1.35-2.76c.47-.88,1-1.83,1.67-2.8s1.44-2,2.13-2.87a2.87,2.87,0,0,1,1.26-.78c.9-.26,1.57.08,2.27-.38a1.66,1.66,0,0,0,.53-.55.83.83,0,0,0,.17-.92.65.65,0,0,0-.32-.29,3.59,3.59,0,0,0-1.18,0,1.52,1.52,0,0,1-.7,0,1.13,1.13,0,0,1-.59-.46l.18-.54a2.87,2.87,0,0,1,.25-.42,3.25,3.25,0,0,1,.3-.32,1.76,1.76,0,0,0-.43-.88,1.86,1.86,0,0,0-1.16-.56,3.35,3.35,0,0,0-.52.78c-.35.77-.22,1.4-.48,1.49-.11,0-.3,0-.66-.41q0-1.17.21-2.49c0-.4.11-.78.18-1.16a2.63,2.63,0,0,0-2-.19c-.38.14-.46.33-1.15,1a22.88,22.88,0,0,1-2.32,2.05c-.51.41-.95.73-1.26,1a1,1,0,0,0,0,.73,1.18,1.18,0,0,0,1.31.58,2.32,2.32,0,0,1,.67-1.07,2.07,2.07,0,0,1,.56-.36c.31-.13.53-.14.65,0,.32.27-.06,1.35-1.12,3.24A9.39,9.39,0,0,1,99.15,181c-1.66,1.6-2.52,1.27-3.83,2.45-1.8,1.61-1.24,3.18-3,4.39a5.11,5.11,0,0,1-2.4.79l-2.42-1.23a1.78,1.78,0,0,0-1.2-.28l-.55.12a3.12,3.12,0,0,0-.73,2.2,2.88,2.88,0,0,0,.41,1.23,6.45,6.45,0,0,0,2,1.55,6.64,6.64,0,0,0,2.37.68,17.85,17.85,0,0,0,8.66-1.08Z"/><path class="cls-4" d="M52.86,310.23c-1.84,18.7,3.32,30.18,6.71,35.9,5.45,9.15,16.31,20.25,17.17,19.68h0c.52-.45-12.26-13.2-18.41-25.43C55.16,334.05,52,324.38,52.86,310.23Z"/><path class="cls-4" d="M124.75,287.33c.34,0,7.48,28.73-7,53.57-7.46,12.8-20.39,24.14-20.91,23.92h0c-.37-.33,13.45-15,19.8-24.91C131.91,316,124.41,287.33,124.75,287.33Z"/><path class="cls-5" d="M112.37,213.17c.14-.12-1.35-4.21-4-8.81C102,193.45,94,188.68,93.75,189h0c-.1.24,5.39,4.7,9.25,9.08C109.29,205.25,112.18,213.32,112.37,213.17Z"/><path class="cls-4" d="M42.43,283c-.21,0-.48-7.76.56-17.46.21-2,.62-5.79,1.34-9.5,2.88-14.82,8.31-15.73,13.26-32,1.46-4.75,2.55-9.78,6.6-15.71A46,46,0,0,1,69,202.59a54.79,54.79,0,0,1,14.24-10.67h0s-18.14,10-22.63,26.77a84.57,84.57,0,0,1-2.43,9.89,92.51,92.51,0,0,1-6,11.94c-4.32,7.17-5.85,13.86-7.54,21.27C41.85,273.88,42.66,283,42.43,283Z"/><path class="cls-4" d="M93.45,193c.37-.11,6,13.12,8.26,30.53a216.93,216.93,0,0,1,1.36,25.51c.1,8.29-.14,15.37-.32,15.37s1-17.9-2.3-40.36C97.67,205.38,93.09,193.12,93.45,193Z"/><path class="cls-6" d="M69.08,240.29A48,48,0,0,1,72.79,216c1.43-3.23,3.72-7.36,6.88-13s5.52-9.56,5.42-9.61-2.81,4.21-5.2,8.11c-2.74,4.48-5,8.47-5.68,9.63C67.63,223,69,240.28,69.08,240.29Z"/><path class="cls-3" d="M80.25,330.61A64.39,64.39,0,0,0,87.07,332a47.51,47.51,0,0,0,6.15.62c16.32-.08,22.64.65,43.82-.35,16.5-.79,25.27-3.73,31.08-6.75a42.57,42.57,0,0,0,11.14-8.65,49.51,49.51,0,0,0,7.66-10.37l4.62-1c1.19,1.68,14.35,20.93,6,43.86-8.77,24.09-33.13,29.85-34.71,30.19a50.49,50.49,0,0,1-13.2,1.06c-16.29-.68-28-8.55-34.12-12.65a111.13,111.13,0,0,1-16.88-14.3c-1.26-1.31-2.83-3-7.07-7.46-3.64-3.81-4.42-4.51-5.68-6.08A40,40,0,0,1,80.25,330.61Z"/><path class="cls-7" d="M80.25,330.61a46.82,46.82,0,0,0,7,0,47.8,47.8,0,0,0,8.12-1.26c8.45-2,24.8.55,43.82-.35,16.5-.79,25.27-3.73,31.08-6.75a36.15,36.15,0,0,0,11.14-8.65,34.35,34.35,0,0,0,5.86-10l6.42-1.37c1.19,1.68,14.35,20.94,6,43.86-8.77,24.09-33.13,29.85-34.71,30.19a48.49,48.49,0,0,1-13.2,1.07c-15.23-.89-26.5-9-34.47-14.9-6.85-5.07-5.28-5.26-17.23-14.9-3.26-2.62-8-6.36-14.47-12.12C83.3,333.47,81.46,331.76,80.25,330.61Z"/><path class="cls-2" d="M117.45,329.49c.22-1,1.32-1.49,2.3-2s3-1.61,5-1.06a5.13,5.13,0,0,0,1.74.46,4.32,4.32,0,0,0,2.15-.54,2.73,2.73,0,0,1,.78-.39,2.76,2.76,0,0,1,.78-.13c.86-.05,1.71-.26,2.57-.38.41-.06.61-.09.91-.16a11.54,11.54,0,0,1,2.28-.6c1.1-.17,1.69-.14,1.78-.44.18-.55-1.7-1.24-1.57-2a1.4,1.4,0,0,1,1.68-.72c.81.29.61,1.44,1.44,1.79.68.29,1-.38,2-.25.76.09,1.3.59,2.35,1.53.82.75,1.06,1.18,1.61,1.19s.51-.3,1.17-.5a4.16,4.16,0,0,1,2.56.31c.75.28.92.52,1.25.41.59-.2.39-1.12.9-1.39.9-.48,2.28,2,4.3,1.79.73-.07.81-.42,1.67-.64,1.3-.33,4,.9,4,.9,1.35.76,6.13,1.29,15.68,2.35.58.06,2.11.2,2.43,1.05.22.55-.27.9-.79,2.37-.6,1.72-.27,2.23-.92,3.29a4.87,4.87,0,0,1-1.51,1.52c-2,1.36-3.57.7-5.7,2s-1.56,2.31-3.41,3c-2,.77-3.46-.23-5.39,1-.63.41-.59.59-1.43,1.12a13.77,13.77,0,0,1-3.34,1.28c-2.47.94-2.35,2-4.57,2.49a5.87,5.87,0,0,1-2.52.09,5.67,5.67,0,0,1-2.2-.94c-2.11-1.44-7.75-2.51-11.68-3.72,0,0-6.89-2.15-16.35-10.68C118.61,332.2,117.14,330.81,117.45,329.49Z"/><path class="cls-8" d="M141.8,351.39a14,14,0,0,1,.72-10.23c1.66-3.21,5.54-7.16,8.64-6.27a3.54,3.54,0,0,1,1.69,1.11c1.79,2,1.39,5.95-1,9.81a10.14,10.14,0,0,1-10,5.58Z"/><path class="cls-8" d="M167.18,328.46c3.39.22,10.16.65,10.44-.81a11.28,11.28,0,0,0-2.79-2.39,19.49,19.49,0,0,0-3-1.23c-3.09-.95-11.21-1.62-11.88.58-.19.62.29,1.27.58,1.68C161.66,327.82,163.63,328.24,167.18,328.46Z"/><path class="cls-8" d="M175.32,313.51c-1.26.82-1.17,2.89-1.12,3.81a9.88,9.88,0,0,0,3.17,6.4c1.78,1.77,4.95,3.83,6.26,2.88a1.51,1.51,0,0,0,.39-.49c.79-1.36.42-3.1-.05-4.56-1-3.24-1.86-5.85-4.45-7.36C179,313.87,176.75,312.58,175.32,313.51Z"/><path class="cls-8" d="M118.41,332.79c-.11.31.31.57,1.36,2.24.47.74.66,1.1.86,1.44a12.81,12.81,0,0,0,4.09,3.81c.75.48,1.14.65,5.11,2.23,4.54,1.81,5,2,5.22,1.72.77-.81-1.76-4.79-4.65-7.48a15.94,15.94,0,0,0-6.47-3.83C121.45,332.19,118.66,332.08,118.41,332.79Z"/><path class="cls-8" d="M138.86,332.23a3,3,0,0,0-1.84,1c-.63,1,.11,1.73-.59,3-.37.64-.84.9-.72,1.24s.68.48,1.11.46.91-.24,2.3-1.57,1.31-1.4,1.84-1.71c.92-.53,1.55-.5,1.64-.92s-.9-1.19-1-1.24A3.61,3.61,0,0,0,138.86,332.23Z"/><path class="cls-8" d="M124.45,326.56c-.37.24-.33,1.07-.14,1.64s.74,1,2,2c1,.81,1.57,1.21,2.06,1.65,1.6,1.41,1.64,2,2.59,2.3s2.27.12,2.49-.42-.9-1.3-.61-2.07c.13-.36.51-.55.94-.75.92-.44,1.32-.12,1.78-.47a2.3,2.3,0,0,0,.24-2.73,2.8,2.8,0,0,0-1.46-1.12c-.89-.4-1.09-.12-2.86-.47-1-.19-1.18-.33-1.7-.24s-.62.31-1.5.66a4.53,4.53,0,0,1-1.88.47C125.3,327,124.85,326.3,124.45,326.56Z"/><path class="cls-9" d="M124,723.78c-5.1-1.56-10.53,5.06-14.28,9.64-4,4.81-10.91,13.29-7.5,19.28,2.16,3.81,8.13,5.92,12.14,4.29s2.93-5.63,8.93-13.57c3.86-5.13,5.94-5.65,6.42-8.93C130.37,730.25,127.82,724.93,124,723.78Z"/><path class="cls-10" d="M127.23,730h-.06c-.42,0-1,1.09-1.14,2.17-.07.86.19,1.85.48,1.86s.71-1.83.77-2.22S127.58,730.13,127.23,730Z"/><path class="cls-10" d="M125.07,735.3a.58.58,0,0,0-.54,0c-.47.19-.55.94-.58,1.2-.1.82.15,1.85.47,1.87s.76-2,.78-2.22S125.27,735.47,125.07,735.3Z"/><path class="cls-10" d="M126.07,737.55s.11,0,.34-.11a2,2,0,0,0,1-1.74c0-.42-.2-1-.47-1.06s-.78,1.2-.82,1.31C125.94,736.53,125.8,737.42,126.07,737.55Z"/><path class="cls-9" d="M128.29,758.8c-9.25-.23-16.47,11-14.51,15.47,1.1,2.49,4.42,1.32,13.08,5.16,6.62,2.94,7.83,5,10,4.25,4-1.43,6.35-10.82,2.65-17.57C137.46,762.35,133.26,758.93,128.29,758.8Z"/><path class="cls-10" d="M136.28,764.23l-.07,0c-.46.22-.46,1.8.1,3,.45,1,1.33,1.85,1.64,1.7s-.35-2.39-.52-2.84S136.74,764.17,136.28,764.23Z"/><path class="cls-10" d="M136.28,769.35a.42.42,0,0,0-.41.15c-.25.31,0,.91.16,1.13.33.66,1,1.36,1.25,1.26s-.45-1.83-.52-2S136.5,769.4,136.28,769.35Z"/><path class="cls-10" d="M139.38,772.53s.13,0,.28-.3a2.34,2.34,0,0,0,0-2.3c-.26-.42-.79-.93-1.08-.8s-.1,1.64-.07,1.78C138.66,771.59,139,772.56,139.38,772.53Z"/><path class="cls-10" d="M133.69,765.64s-.11,0-.14.26a2.14,2.14,0,0,0,.87,1.82c.38.3,1,.65,1.22.51s-.52-1.3-.6-1.4C134.65,766.31,134,765.58,133.69,765.64Z"/><path class="cls-10" d="M138.86,768.15c-.15.1-.51-.07-.64-.32s0-.31,0-.6c.06-.69-.19-1.09-.1-1.12s.44.35.65.92C138.78,767.08,139.13,768,138.86,768.15Z"/><path class="cls-11" d="M103.75,561.32a44.53,44.53,0,0,1,0,20.17A92.1,92.1,0,0,0,87,638.59,76.1,76.1,0,0,0,77.11,674a75.62,75.62,0,0,0-9.52,34.25,88,88,0,0,0-8.41,15.55A90,90,0,0,0,52.37,760c-1.56,2.66-18.92,33-9.49,42.38a9.09,9.09,0,0,0,3.33,2,14.22,14.22,0,0,0,9.85-.17,47,47,0,0,0,9.82-9.6,47.74,47.74,0,0,0,8.75-19.73,150,150,0,0,0,22.06-41,149.5,149.5,0,0,0,7.06-29.4A214,214,0,0,0,115,662.83a212.05,212.05,0,0,0,2.45-22c1.58-3.58,13.57-31.9-.66-51a33.21,33.21,0,0,0-7.33-7.18,59.79,59.79,0,0,0-1.91-11A60.88,60.88,0,0,0,103.75,561.32Z"/><path class="cls-12" d="M32.93,843.77l4.16-.34c2.9-8.22,5.67-17,8.18-26.33,1.13-4.19,2.15-8.3,3.09-12.32-.24,0-.5-.08-.77-.14s-.54-.13-.78-.2c-.51,2.58-1.23,5.85-2.25,9.6a144.57,144.57,0,0,1-4.83,14.66A152.76,152.76,0,0,1,32.93,843.77Z"/><path class="cls-13" d="M101.15,605.5c-.93.41-8.17,3.79-10.07,11.68-1.69,7,1.55,14.73,8.18,19.05-1.71.88-12.94,6.91-16.17,20.4a31.54,31.54,0,0,0,3,22,18.09,18.09,0,0,0-9.15,4.27c-6.76,6.12-8.1,17.94-3.09,29.47a43.33,43.33,0,0,0-6.09,7c-3.2,4.54-8.24,11.73-6.86,20.18.27,1.64,1.33,8.16,6.42,10.9,5.46,2.93,12-.35,16-2.36,3.64-1.82,7.53-3.76,9.16-7.55,2.59-6-1.25-14.9-9.7-21.56A30.51,30.51,0,0,0,97.1,678c2.08-.74,10.38-4,14.56-12.67,4.4-9.14,2.48-20.64-4.9-29.12a8.9,8.9,0,0,0,5.06-.92c9.08-4.91,8.34-28.94.11-32.54C110.41,602.1,107.19,601.49,101.15,605.5Z"/><path class="cls-14" d="M75.79,688.26c-.27.35-.47.64-.56.77-2.25,3.24-4.81,11.37-1.71,15.59,4.09,5.56,17.44,4.65,21.81-2.73,2.91-4.92.59-10.61.33-11.21-2.53-5.94-9.45-9.93-13.51-8.33C79.48,683.41,76.31,687.58,75.79,688.26Z"/><path class="cls-14" d="M63.94,731.19c-.84,4,0,9.19,3.3,12.1,6.58,5.7,20.61.51,22.13-6.4,1.58-7.18-10-17.89-18.18-15.13C67.12,723.14,64.69,727.62,63.94,731.19Z"/><path class="cls-14" d="M110.3,607.06c-4.9-2-17.87,6.44-15.86,16.51,1.48,7.38,10.38,12.41,15,10.45C116.66,631,116.42,609.54,110.3,607.06Z"/><path class="cls-14" d="M94.81,644.05c-8.88,2.52-11.15,17-6.82,21.36,5.18,5.24,22.83-.75,23.63-8.64C112.24,650.67,102.94,641.74,94.81,644.05Z"/><path class="cls-15" d="M99.47,602.14a.79.79,0,0,0-.17,0c-1.28-.09-3.21,3.34-3.48,6.62-.22,2.62.59,5.65,1.45,5.69,1.19.05,2.17-5.59,2.38-6.78S100.53,602.56,99.47,602.14Z"/><path class="cls-15" d="M110.07,663.59s-.18-.05-1.38,1.34c-1.41,1.62-2.22,2.81-3.13,4-1.86,2.52-2.51,3-2.37,3.21s3-1,4.84-3.48C109.71,666.49,110.42,663.77,110.07,663.59Z"/><path class="cls-15" d="M68.52,728.5c-.28-.68-1-1.82-1.76-1.76-1.27.11-2.16,3.66-2.19,6.44,0,2.49.61,5.65,1.46,5.69.47,0,1.1-2.24,2.37-6.77A5.24,5.24,0,0,0,68.52,728.5Z"/><path class="cls-15" d="M99.52,707c0-.49-.29-1.15-.73-1.21-.74-.1-1.42,1.59-3.58,5.11-1.73,2.82-2.46,3.64-2.32,3.89s2.38-1.32,4-3.11C98.06,710.38,99.69,708.57,99.52,707Z"/><path class="cls-15" d="M84.32,663.82c-.37-.05-.73.63-1.35,1.8-.81,1.54-1.71,3.23-1.16,5.15.47,1.61,1.94,3.32,2.8,3.05C86.4,673.26,85.63,664,84.32,663.82Z"/><path class="cls-15" d="M112.77,621.72l0,0c-.31,0-.29,1.79-1,3.57-.55,1.49-1,1.4-1.3,2.6-.37,1.46-.1,3.17.39,3.27s1.63-2.2,2.09-3.93C113.75,624.2,113.14,622,112.77,621.72Z"/><path class="cls-15" d="M67.8,769.26h0l-.12,0c-.71,0-1.48,2.84-1.48,2.84-1.28,4.68-1.91,7-1.39,7.34.9.55,3.92-1.45,4.68-4.26C70.31,772,67.87,769.29,67.8,769.26Z"/><path class="cls-15" d="M96,715.62l0,0c-.18-.21-1,0-1.55.52s-.76,1-.63,1.12,1.19-.55,1.4-.71S96.13,715.84,96,715.62Z"/><path class="cls-15" d="M111.19,623h0c.28,0,.62-.79.61-1.51s-.25-1.22-.44-1.21-.35,1.26-.37,1.53S111,622.93,111.19,623Z"/><path class="cls-15" d="M67.2,737.62l0,.07a7.26,7.26,0,0,0-.26,2.92c.11.63.43.88.59.5a8.22,8.22,0,0,0,0-2.46C67.52,738.34,67.42,737.22,67.2,737.62Z"/><path class="cls-15" d="M70.56,771.32l0,0c.27-.19.06-1.17-.44-1.85s-1.07-1-1.24-.87.52,1.43.68,1.7S70.29,771.41,70.56,771.32Z"/><path class="cls-15" d="M64,778.57c0-.1-.07-.23-.17-.26-.28-.09-1,.72-.86,1.39.1.37.47.69.66.62s.07-.23.23-.84C63.93,779.06,64,778.86,64,778.57Z"/><path class="cls-15" d="M67.65,779.61s-.11.11-.09.17.14.07.18.08a1.29,1.29,0,0,0,1.09-.46c.3-.38.27-.91.15-.94s-.11.14-.39.39S67.94,779.33,67.65,779.61Z"/><path class="cls-15" d="M67,779.33h0s-.16,0-.25.06c-.35.15-.41.2-.56.2H66a.3.3,0,0,0-.06.5c.17.1.56-.09.76-.25S67,779.36,67,779.33Z"/><path class="cls-15" d="M43,786.11l0,0,0-.05c.23-.23.25,2.25.25,2.25,0,4,0,6.06-.16,6.52-.33.78-1.14-.26-1.16-2.68A22.92,22.92,0,0,1,43,786.11Z"/><path class="cls-16" d="M77.69,1056.4a719.74,719.74,0,0,0-23.87,87.84c-21.31,104-13.34,182.79-13,182.8s-9.43-88.72,21.21-199.91a605.28,605.28,0,0,1,24.27-70.73Z"/><path class="cls-16" d="M80.13,1035c-1.38,2-10.13,14.79-5,22.15a11.13,11.13,0,0,0,11.07,4.25c6.92-1.78,11.93-13.37,9.88-28.92l-8.83-5.18A36.23,36.23,0,0,0,80.13,1035Z"/><path class="cls-17" d="M82.32,1029.7l-8.67-5c-1.73,0-3.51,0-5.35,0-3.22-.07-6.3-.24-9.21-.49a31.39,31.39,0,0,1-15.5-3.75,30.11,30.11,0,0,1-5.9-4.25,15,15,0,0,0-3.5-2.76,16.65,16.65,0,0,0-11.25-1.66A34.11,34.11,0,0,1,43,1007.2a21.64,21.64,0,0,1-4.08-3.66c-3.34-3.89-3.41-6.91-6.8-11.09a24.13,24.13,0,0,0-3.5-3.51,39.75,39.75,0,0,1,20.65,5l-7-15.12a20.19,20.19,0,0,0,7.81,3.74,12.59,12.59,0,0,1,3.26.87A10.12,10.12,0,0,1,58,988.57a15.24,15.24,0,0,0,2.58-5.16c.92-3.35.1-5.2,1.29-7.93a10.17,10.17,0,0,1,3.32-4.06,130.59,130.59,0,0,0,8.11,38.73,22.85,22.85,0,0,0,10.51,15.49Z"/><path class="cls-18" d="M81.22,1028.28l-6-3.42c-1.19,0-2.41,0-3.67,0q-3.33-.08-6.33-.34a21.41,21.41,0,0,1-10.65-2.58,20.89,20.89,0,0,1-4.06-2.91,10.33,10.33,0,0,0-2.41-1.9,11.39,11.39,0,0,0-7.73-1.14,23.48,23.48,0,0,1,13.82-3.17,14.36,14.36,0,0,1-2.81-2.52c-2.29-2.67-2.34-4.75-4.67-7.62a16.16,16.16,0,0,0-2.41-2.41,27.27,27.27,0,0,1,14.19,3.42L53.72,993.3a13.79,13.79,0,0,0,5.36,2.57,8.35,8.35,0,0,1,2.24.6,6.89,6.89,0,0,1,3.17,3.55,10.78,10.78,0,0,0,1.78-3.55c.63-2.31.07-3.58.88-5.45a7.05,7.05,0,0,1,2.28-2.79,92.2,92.2,0,0,0,1.27,10.9A90.65,90.65,0,0,0,75,1014.84a15.65,15.65,0,0,0,7.23,10.65Z"/><path class="cls-19" d="M91.2,1023.88V1020a4.17,4.17,0,0,1-2.73.9,4.57,4.57,0,0,1-3.88-3.3,43.36,43.36,0,0,0-2.06-7.91c-1.08-3-1.85-4.11-2.71-6.67a31.31,31.31,0,0,1-1.57-9.1,15.17,15.17,0,0,0-6.31-8.23,31.68,31.68,0,0,1,17,8.75c-.83-4.34,0-7.07.88-8.75,1.38-2.61,3.62-4,4.38-7.53a10.77,10.77,0,0,0,.17-3.32,12.16,12.16,0,0,1,4.2,4.72,12.29,12.29,0,0,1,1.23,6.48,58.45,58.45,0,0,1,9.28-19.61c.24,1.57.65,4,1.25,7.09a68.2,68.2,0,0,1,1.37,7.44,23.86,23.86,0,0,1-1.05,8.93,14.8,14.8,0,0,1,10.33-5.6c-.17,1.26-.44,3-.87,5.08a58.36,58.36,0,0,1-2.45,8.92,41.36,41.36,0,0,1-8.23,13,49.75,49.75,0,0,1-7,6.48l-6.86,2.45-1.4,3.67Z"/><path class="cls-20" d="M90.44,1023.88v-2.8a3,3,0,0,1-2,.65,3.35,3.35,0,0,1-2.83-2.41,32,32,0,0,0-1.49-5.76c-.79-2.18-1.35-3-2-4.86a22.83,22.83,0,0,1-1.15-6.63,10.87,10.87,0,0,0-1.29-2.72,11.14,11.14,0,0,0-3.3-3.28,23.13,23.13,0,0,1,12.38,6.38,9.37,9.37,0,0,1,.63-6.38c1-1.9,2.64-2.92,3.19-5.48a7.94,7.94,0,0,0,.13-2.43,8.85,8.85,0,0,1,3.06,3.45,9,9,0,0,1,.9,4.72A42,42,0,0,1,103.46,982c.18,1.14.47,3,.91,5.16a52,52,0,0,1,1,5.43,17.36,17.36,0,0,1-.77,6.5,10.76,10.76,0,0,1,7.53-4.08c-.12.92-.32,2.19-.64,3.7a40.86,40.86,0,0,1-1.78,6.51,30,30,0,0,1-6,9.44,35.86,35.86,0,0,1-5.08,4.72l-5,1.78-1,2.68Z"/><path class="cls-21" d="M90.62,1023.88v-1.72a1.76,1.76,0,0,1-1.21.4,2,2,0,0,1-1.74-1.47,19.25,19.25,0,0,0-.92-3.53c-.48-1.33-.82-1.83-1.21-3a14.27,14.27,0,0,1-.7-4.07,7.17,7.17,0,0,0-.79-1.67,6.79,6.79,0,0,0-2-2,14.12,14.12,0,0,1,7.58,3.91,5.74,5.74,0,0,1,.39-3.91c.61-1.16,1.62-1.79,2-3.36A5,5,0,0,0,92,1002a5.5,5.5,0,0,1,1.88,2.11,5.43,5.43,0,0,1,.54,2.9,25.9,25.9,0,0,1,4.14-8.76c.11.7.3,1.81.56,3.17.37,1.88.54,2.41.62,3.32a10.69,10.69,0,0,1-.47,4,6.62,6.62,0,0,1,4.61-2.5c-.08.56-.2,1.35-.39,2.27a26.57,26.57,0,0,1-1.1,4,18.55,18.55,0,0,1-3.67,5.78,22,22,0,0,1-3.11,2.89l-3.06,1.09-.63,1.64Z"/><path class="cls-22" d="M104.3,1027.69l2.18-.78,1.87-6.85q1.66-3.84,3.73-7.94c1.7-3.35,3.43-6.47,5.14-9.34a8.69,8.69,0,0,1,1.4,3.42,8.89,8.89,0,0,1-.15,3.89,93.94,93.94,0,0,1,9.34-9.18c1.8-1.54,3.57-2.94,5.29-4.21a17.16,17.16,0,0,1-2.8,12.93l18.53-6.85a22.49,22.49,0,0,1-10.9,13.39,75.73,75.73,0,0,1,15.73,3.41c1.07.35,2.1.72,3.11,1.1q-1.62,1.8-3.27,3.74-2.75,3.24-5.14,6.38c2.09-.37,7.81,9.71,6.08,10.12.44.68-.32,3-1.17,4.26a6.66,6.66,0,0,0-1,2.59,54.08,54.08,0,0,1,6.67,7.94,20.1,20.1,0,0,1-5.38-.68,20.34,20.34,0,0,1-5.36-2.27c.67,2.54,1.35,5.08,2,7.62a47.26,47.26,0,0,0-7.5-3.78,50.32,50.32,0,0,0-10.25-2.83c-4.35-.89-10.56-3.51-18.22-11.45l-7.63-2.64Z"/><path class="cls-23" d="M104.3,1029l1.83-.65,1.56-5.75c.94-2.14,2-4.37,3.14-6.66,1.42-2.81,2.87-5.42,4.31-7.83a7.4,7.4,0,0,1,1.17,2.87,7.52,7.52,0,0,1-.13,3.26,78.87,78.87,0,0,1,7.84-7.7c1.5-1.29,3-2.46,4.44-3.53a14.75,14.75,0,0,1,0,5.23,14.49,14.49,0,0,1-2.36,5.61l15.54-5.74a18.68,18.68,0,0,1-3.13,6.13,18.9,18.9,0,0,1-6,5.1,63.22,63.22,0,0,1,13.19,2.86c.9.29,1.77.6,2.61.92-.91,1-1.82,2.05-2.74,3.14-1.54,1.81-3,3.6-4.31,5.35a19.82,19.82,0,0,0,7.7-3.13c2.29-1.56,1.1,2.15.2,2.75,1.34-.48,1.78,1.94.07,2.6a8.29,8.29,0,0,0,2.86,1.16c1.61.33-4.28,4.76-5.74,5.11l1.12,1.69a5.53,5.53,0,0,0-2.93,4,17.42,17.42,0,0,1,3.29,3.06,17.09,17.09,0,0,1,2.31,3.6,17.26,17.26,0,0,1-4.52-.57,17,17,0,0,1-4.49-1.91c.57,2.13,1.13,4.27,1.7,6.4a40.21,40.21,0,0,0-6.29-3.18,42.86,42.86,0,0,0-8.59-2.37c-3.65-.74-8.87-2.94-15.28-9.6l-6.4-2.22Z"/><path class="cls-24" d="M111.7,1036.18c9.92.76,26.9.38,43-9.52a62.64,62.64,0,0,0,7.61-5.5,15.87,15.87,0,0,1-2.2,4.51,16.19,16.19,0,0,1-3.65,3.71,32.36,32.36,0,0,0,5.39-1.55,33.18,33.18,0,0,0,7.66-4.16,35.25,35.25,0,0,1-11.63,8.56,6.77,6.77,0,0,0,1.4,1.26,7.5,7.5,0,0,0,5,1.11,11.84,11.84,0,0,1-5.45,4.46,11.55,11.55,0,0,1-5.4.76l1.74,2.53-2.54,5.38a9.27,9.27,0,0,0,1.46,4.23,9.51,9.51,0,0,0,4.71,3.68q-3.35-.59-6.79-1.27c-1.56-.3-3.09-.62-4.6-.94,0,0,1,2.8,1,2.85l1.5,4.1a62.51,62.51,0,0,0-10.44-4.9c-5.63-2-8.31-2.06-12.34-3.48a36.37,36.37,0,0,1-14.08-9.33l-6.17-3.16Z"/><path class="cls-24" d="M100.78,1037.25a81.49,81.49,0,0,0,18.11,14.26c6.31,3.64,13,7.41,22.46,8.18a43.29,43.29,0,0,0,12.33-.8,28.28,28.28,0,0,1-7.22,5.12c-11.65,5.76-23.71,1.38-26.76.16l-6.9-6.25c1,2.19,2,4.38,3,6.58a12.8,12.8,0,0,1-3.18,4,12.56,12.56,0,0,1-4.68,2.43l-5.61-8.66v-17.79l-5.93-2.89Z"/><path class="cls-24" d="M86.15,1039.44a41.74,41.74,0,0,1-9.47,13.15c-10.35,9.55-23.55,11.29-23.31,12.12.16.55,5.88-.49,10.51-1.87a54.41,54.41,0,0,0,7.17-2.68l1.93,4.55a13,13,0,0,0,6-5.44,32.73,32.73,0,0,0,1.76,6.25,33.08,33.08,0,0,0,5.44,9.19,21.43,21.43,0,0,0,4.81-6.1,20.88,20.88,0,0,0,1.68-4.25A34.82,34.82,0,0,0,110,1077.52a59.11,59.11,0,0,1-22.47-39.84Z"/><path class="cls-25" d="M70.56,1030.16a86.86,86.86,0,0,0-20.19-5.4c-2.46-.34-5.45-.62-9.88-1.58a85.42,85.42,0,0,1-12-3.51,39.6,39.6,0,0,0,4,2.86c.82.52,1.62,1,2.39,1.39a17.37,17.37,0,0,1-3.55,2.47,17.12,17.12,0,0,1-4,1.5,22.4,22.4,0,0,0,4.41,1.76,22.11,22.11,0,0,0,4.8.79,36,36,0,0,0-8.5,7.09,83.82,83.82,0,0,0,23.52,6,19.64,19.64,0,0,1-2.37,4.47,20.07,20.07,0,0,1-6.55,5.87,32.5,32.5,0,0,0,14.82-1.56,33.65,33.65,0,0,0,17.32-14.32l11.5-1.83-2.13-7.51C78.55,1028.93,69.45,1030,70.56,1030.16Z"/><path class="cls-26" d="M79.41,1026.8l3.59-4.28-1.8-13.25a16.12,16.12,0,0,1-.13-3.81,15.45,15.45,0,0,1,.9-4c.11-.22,1.63-3.31,2.47-3.07a2,2,0,0,1,.83,1.78v0a15.87,15.87,0,0,0-2,6.39,17,17,0,0,0,4.07,12.8,7.74,7.74,0,0,0,2,1.55,12.31,12.31,0,0,0,4.19,1.08,12.44,12.44,0,0,1,4.72,2.09c.82-2.88,1.84-6,3.11-9.27a102,102,0,0,1,4.35-9.64,1.5,1.5,0,0,1,1.58-.29,1.61,1.61,0,0,1,.49,2.23,54.22,54.22,0,0,0-2.88,4.92,54.91,54.91,0,0,0-4.85,13.61,11.58,11.58,0,0,1,2.87,2.63,12.49,12.49,0,0,1,2.51,7.68,16.35,16.35,0,0,0,5.45-1.82,16.71,16.71,0,0,0,6-5.66,5.85,5.85,0,0,0,1-2.83,6,6,0,0,0-.3-2.25,1.51,1.51,0,0,1,1.19-1.64,1.53,1.53,0,0,1,1.57,1.64,8.94,8.94,0,0,1-.37,5.42,8.83,8.83,0,0,1-2.09,3l-4.86,4.32-6.81,2.56a8.19,8.19,0,0,0,.6,1.85,9.41,9.41,0,0,0,.55,1,5.83,5.83,0,0,0,2.14-.66,6.1,6.1,0,0,0,2.42-2.37,4.68,4.68,0,0,1-1.16,3.45,4.85,4.85,0,0,1-4.13,1.38c-1.38-.14-16.86-.2-19.56-2-6.31-4.29-9.87-15.07-9.8-14.94l-2.76-8.7a10.45,10.45,0,0,1,2.76-9.94,1.33,1.33,0,0,1,1.84-.52c.45.38,0,1.4-.19,1.9a7.45,7.45,0,0,1-1.66,2.47C76.17,1012.69,76,1016.13,79.41,1026.8Z"/><path class="cls-27" d="M78.51,1029.12a8,8,0,0,1,1.19-1c.63-.43,2.59-1.81,3.93-1.15.54.26.56.68,1.57,1.23a6.08,6.08,0,0,0,1.1.47,6.45,6.45,0,0,0,1.56.28,31.68,31.68,0,0,0,2.58-5,32.4,32.4,0,0,0,2.33-10.24,1.4,1.4,0,0,1,.31-1.55,1.35,1.35,0,0,1,1.45-.26c.31.14.66.5.88,2a11.42,11.42,0,0,1,0,3.58,36.35,36.35,0,0,1-1.32,5.43,44.69,44.69,0,0,1-3.65,7.77,12,12,0,0,1,5.71,4.55,11.55,11.55,0,0,1,1.82,5,13.1,13.1,0,0,0,9.13-5.94,4.75,4.75,0,0,0,.75-2.25,4.69,4.69,0,0,0-.23-1.79,1.19,1.19,0,0,1,.95-1.3,1.2,1.2,0,0,1,1.24,1.3,7.05,7.05,0,0,1-.29,4.3,7,7,0,0,1-1.67,2.43l-3.85,3.42-5.41,2-1.39.8a15.28,15.28,0,0,1-18.69-14Z"/><path class="cls-16" d="M109.84,1157.87a414.43,414.43,0,0,0-17.92,48.79c-17.28,58.08-16.73,103.14-16.51,103.16s-.88-50.78,22-112.5a350.54,350.54,0,0,1,17.29-39Z"/><path class="cls-16" d="M110.72,1153.13c-.66.8-4.82,5.82-3,9.09a4.64,4.64,0,0,0,4.45,2.18c3-.5,5.51-5.17,5.28-11.75l-3.48-2.49A15.09,15.09,0,0,0,110.72,1153.13Z"/><path class="cls-25" d="M129.39,1153.68a77.12,77.12,0,0,0,14.49,2.45,79.23,79.23,0,0,0,29.27-3.46,37.35,37.35,0,0,1-11.77,6.58,23.29,23.29,0,0,0,8,1.18,23.74,23.74,0,0,0,10.31-2.72,44.51,44.51,0,0,1-25.53,5.6,48.14,48.14,0,0,0,28.14,4.71,49.18,49.18,0,0,1-35.5-1,34.24,34.24,0,0,0,1.78,3.34,36.63,36.63,0,0,0,8.07,9.35c-3.39-2-6.89-4.2-10.45-6.7a152.49,152.49,0,0,1-24.62-21.52l3.47-1.15Z"/><path class="cls-21" d="M110.21,1145.52c-2.92-4.2-4.88-7-5-11-.22-5.22,2.83-7.33,6.5-17.23a79.35,79.35,0,0,0,2.63-8.58c.73,3.06,1.62,7.25,2.37,12.32.35,2.33.62,4.16.86,6.7.65,7,.43,12.89,1.26,13,.31,0,.39-.79,1.38-1.39a6.33,6.33,0,0,1,2.39-.52,4.94,4.94,0,0,0,3.06-2.56,12.53,12.53,0,0,1-1.24,3.79c-1.22,2.33-2.65,3.25-2.47,3.5.34.49,6.13-1.79,11.17-6.69,2.23-2.17,2.89-3.46,5.63-5.56a28.91,28.91,0,0,1,5.92-3.49c-.54.88-1.24,2.06-2,3.47-1.8,3.29-2.7,4.93-2.41,5.19.65.58,5.41-4.74,13.24-10.34a87.25,87.25,0,0,1,7.81-5c-.79,1.36-2,3.49-3.47,6.15-2,3.73-2.12,4.13-3.19,5.87-2.69,4.36-4.77,6.07-4.38,6.58.56.71,4.53-2.83,10.7-3.91a22.17,22.17,0,0,1,7.73.07,80.54,80.54,0,0,0-8.33,3.54c-6.36,3.15-16.18,9.06-15.43,10.94.54,1.35,6.44.49,10.7-1.3a22.66,22.66,0,0,0,8.95-6.85,20.59,20.59,0,0,1-3.35,7.91c-7.91,11.13-27.51,13.21-39.88,6.09A35.84,35.84,0,0,1,110.21,1145.52Z"/><path class="cls-25" d="M117.22,1153.44l-21-13.2a22,22,0,0,0-3.79-1.41c-3.26-.87-5.08-.53-7.52-.93a16.54,16.54,0,0,1-7.22-3.17,43.85,43.85,0,0,1,4.74,0c1.24.07,2.41.18,3.5.33-1.7-2.12-3.43-4.47-5.13-7.07a92.37,92.37,0,0,1-7.47-13.78c1.94,1.16,4,2.48,6.09,4,1.84,1.32,3.54,2.65,5.09,3.93q-2.55-5-5-10.46c-1.19-2.61-2.31-5.19-3.36-7.71l4.88,4.36a12.14,12.14,0,0,1,.64-2.07,12.57,12.57,0,0,1,.93-1.78l3.6,13.69-5.62-22.27,6.32,8.15c0-1.92.08-3.88.17-5.9q.16-3.63.43-7.05l7.74,26.33Z"/><path class="cls-26" d="M112.3,1145.15a27.08,27.08,0,0,0-1.53-5.22s-.84-2.25-.36-3.21a2.87,2.87,0,0,1,.38-.57,3.38,3.38,0,0,1,.89-.66,4.79,4.79,0,0,1,.94-.47c.38-.14,1-.37,1.17-.14a.3.3,0,0,1,.07.15c.08.47-.88,1-1.17,1.19s-.34.15-.64.34c-.55.35-.68.45-.75.59a1,1,0,0,0,0,.67c.19.65.69,3,1.37,6.34Z"/><path class="cls-26" d="M122.72,1148.71a6.49,6.49,0,0,0,3.81-1.86,10.65,10.65,0,0,0,2.21-3.48,2.84,2.84,0,0,1,.56-1.06c.19-.23.66-.7.86-.6s-.29,1.94-.48,2.49a9.7,9.7,0,0,1-1.16,2.42,7.9,7.9,0,0,1-1.36,1.59A7.61,7.61,0,0,1,123,1150C122.91,1149.57,122.82,1149.14,122.72,1148.71Z"/><path class="cls-26" d="M133.8,1146.69a12.16,12.16,0,0,0,2.13-3.13c.39-.86.75-1.85,1.14-1.81.22,0,.36.35.41.54.14.52-.14,1-.61,1.71a20.93,20.93,0,0,1-1.71,2.17Z"/><path class="cls-26" d="M115.17,1143.38a13.42,13.42,0,0,1,1.16-5.31c.08-.19,2-4.49,3.68-4.22.38.06.81.37.8.64s-.51.4-1.06.76a5,5,0,0,0-1.41,1.57,13.22,13.22,0,0,0-1.94,6.17,2.41,2.41,0,0,1-.24,1c-.18.35-.54.81-.76.75S115.16,1143.45,115.17,1143.38Z"/><path class="cls-26" d="M109.83,1147.78a23.51,23.51,0,0,1-1.85-3.34,10.34,10.34,0,0,1-1.26-3.48,10.06,10.06,0,0,1-.13-2.37,13.36,13.36,0,0,0,1.76,2.31,13.94,13.94,0,0,0,4,3,4.72,4.72,0,0,1,.17-1.44,4.88,4.88,0,0,1,1.31-2.18,4.45,4.45,0,0,0,1.49,3.79c.82.35,1.73.71,2.72,1s1.78.54,2.59.73c.95,1.27,1.74,1.57,2.32,1.57s1.12-.32,1.39,0,0,.76.14,1.48a2.21,2.21,0,0,0,.66,1,10.25,10.25,0,0,0,2,1.74,10.09,10.09,0,0,0,3,1.38,8.35,8.35,0,0,1-7.22,1.18l6.88,4.91a108,108,0,0,1-10.44-4.07C117.36,1154.09,111.12,1149.71,109.83,1147.78Z"/><path class="cls-19" d="M115.45,1145.11q2.4-4.86,4.82-9.71a55.13,55.13,0,0,0-1.54,5.54c-.26,1.22-.47,2.39-.63,3.5a5.59,5.59,0,0,1,1.12-1.13,5.47,5.47,0,0,1,1.77-.89c-.52.6-1.06,1.26-1.61,2a29.13,29.13,0,0,0-1.74,2.65,13.82,13.82,0,0,1,2.53-1.26,14.43,14.43,0,0,1,3-.76c-.73.36-1.48.76-2.25,1.19a50.6,50.6,0,0,0-4.28,2.71,3.22,3.22,0,0,0-1.24,1.52,5.07,5.07,0,0,0-.23,1.62,7.25,7.25,0,0,1-.47-3.1A9.33,9.33,0,0,1,115.45,1145.11Z"/><path class="cls-26" d="M120.15,1146.88a35.52,35.52,0,0,0,4.08-5.6c.57-1,1.07-1.93,1.5-2.83.26-.35.58-.56.76-.48s.18.79.16,1a2.71,2.71,0,0,1-.42,1.11c-1,1.5-.43,1.07-1.67,2.92-.21.31-.57.85-1.13,1.61s-1.31,1.75-2.29,2.91Z"/><path class="cls-23" d="M107.86,1144.59A341.4,341.4,0,0,1,90,1114.35q-3.15-6-5.91-11.87,3.3,4,6.64,8.2c1.39,1.77,2.75,3.52,4.06,5.26l-3.4-19.41c1.73,3.77,3.45,7.8,5.1,12.11,2,5.16,3.64,10.11,5,14.78-.23-.45-4.67-9.48-3.28-15.53a33.34,33.34,0,0,1,1.74-5.08,30.14,30.14,0,0,1,2.13-4,38.52,38.52,0,0,0-1.37,5.92A40.47,40.47,0,0,0,103.5,1126a41.58,41.58,0,0,1,8.6-19.52,108.73,108.73,0,0,0-1.59,29.9l4,15.25Z"/><path class="cls-19" d="M109.83,1150.05c-.56.23-6.67-13.73-10.55-23.06s-6.9-17.37-9-23.19c2.49,4.26,5,8.89,7.48,13.89,2.18,4.42,4.11,8.7,5.81,12.79a96,96,0,0,1,.78-10.62,93.41,93.41,0,0,1,2.87-13.76,80.6,80.6,0,0,0-1.79,13.68,81.84,81.84,0,0,0,2,22.26C109.67,1148.42,110,1150,109.83,1150.05Z"/><path class="cls-19" d="M117,1150.92c8-.87,13.62-4.08,17.3-5.46a176.41,176.41,0,0,0,24.37-11.28c-1.87,1.85-3.93,3.77-6.21,5.7a104.72,104.72,0,0,1-9.33,7.08,79.17,79.17,0,0,0,16.35-8.35c1.19-.79,2.33-1.6,3.42-2.42a30.24,30.24,0,0,1-5.16,5.61c-.75.49-1.52,1-2.32,1.44a67.6,67.6,0,0,1-17,7.16l22.48-5.68q-3.16,1.4-6.61,2.72c-4.24,1.63-8.3,3-12.14,4.08a88.94,88.94,0,0,0,20-3.27,36.33,36.33,0,0,1-7.95,4.72c-7.57,3.28-14.26,3-20.05,2.67a64,64,0,0,1-20.24-4.49C114.62,1151.12,115.7,1151.06,117,1150.92Z"/><path class="cls-19" d="M121.74,1153.58c2.71.82,5.28,1.58,6.35,1.84a70.11,70.11,0,0,0,18.13,1.89,59.09,59.09,0,0,1-6,.84,62.15,62.15,0,0,1-6.34.25q5.88,1.74,12.27,3.29c8,1.93,15.68,3.35,22.84,4.39a123.9,123.9,0,0,1-23-2.36,88.55,88.55,0,0,1-19.06-5.52,80.56,80.56,0,0,1-13.41-7.27C115.39,1151.58,118.25,1152.52,121.74,1153.58Z"/><path class="cls-19" d="M111.35,1149.64a72.07,72.07,0,0,1-3.61-12.33,72.94,72.94,0,0,1-1.4-15.1,49,49,0,0,0,7.15,15.81c.18-1.12.41-2.29.72-3.52a41.44,41.44,0,0,1,2.84-7.81,42.16,42.16,0,0,0-1,18.48c.63.34,4.56,2.42,8.7.69a9.23,9.23,0,0,0,3.32-2.4,9,9,0,0,1-.59,2.72,9.46,9.46,0,0,1-1.34,2.36,43.94,43.94,0,0,0,10-3.21,44.52,44.52,0,0,0,10.79-7,20.85,20.85,0,0,1-2.64,5.31c-7.62,11-23.57,10.8-26.13,10.73h0Z"/><path class="cls-21" d="M106.59,1150.23c-12.11-2.38-14.4-26-13.42-26.38.73-.27,3,12,14.3,20.34a35.86,35.86,0,0,0,7.85,4.36C111.31,1150.68,108.33,1150.58,106.59,1150.23Z"/><path class="cls-21" d="M118.34,1151.19a8,8,0,0,1,.46,4.8,45,45,0,0,1-1.69,4.35c-.32.83-.58,1.5-.74,1.94a3.13,3.13,0,0,0-.13,1.82c.26,1.11,2.14,1.51,2.36,1.07.31-.59-.06-1.18-.16-1.92-.15-1,.27-1.58,1-3.14,1.08-2.4,1.62-3.61,1.59-4.74S120.52,1152.92,118.34,1151.19Z"/><path class="cls-28" d="M106.39,0c-.22,94.32-.33,133.8-.37,135.47,0,0,0,.09,0,.2,0,.61,0,2.53,0,5,.07,3.41.26,6.66.56,9.71,0,0,.21,2.06.61,4.19,1.85,9.77,5.84,16.48,10.4,24,6.44,10.6,14.25,18.15,22.41,27,22.87,24.76,25,26.2,29.75,33.91C176,249.67,180,256.19,182,266.19c2.34,12,.45,14.69,4.51,19.64s8.87,4.67,13.56,7.17c14.24,7.58,18.66,36.43,11.56,57.88-.79,2.38-9.8,28.21-34.14,37.36-27.89,10.47-53.19-9.49-66,3.6-5,5.06-5.57,12.52-5.42,17.55v15L300,420q0-210,0-420Z"/><path class="cls-28" d="M106.38,412.05c.24,70.61,0,99.57-.36,107.8,0,1-.12,4.44,0,9a67.45,67.45,0,0,0,3.52,19.19c3.74,10.94,9.33,20.05,13.14,23.86h0a105.94,105.94,0,0,1,13,18.73,31.93,31.93,0,0,1,2.5,6.34c4.66,16.07,0,30.69-.8,33-2.08,6.24-3.41,6.36-6,12.73-3,7.61-4,35.42-4,35.42,0,23.14-13.09,39.14-9.23,41.4,1.61.94,3.49-2,8-1.56s8.67,3.9,10.6,7.81c3.34,6.74-.12,14.37-1,16.41-2.64,5.86-6,7.34-5.17,9.95.87,2.82,5.05,2,9.55,5.17,6.13,4.36,8.06,12.82,7.78,18.78-.21,4.3-1.87,13.19-6.89,14.66-1.6.47-5.83-1.51-14.21-5.47h0a94.15,94.15,0,0,0-8.89-3.63c-4.75-1.34-8.74-2.46-10.8-.46a4.48,4.48,0,0,0-1.21,2.71v34.54l194,.16V412.07Z"/><path class="cls-28" d="M300.05,811.81H106c2.56,91.6,2.41,119.62,1.5,124.27-1.15,5.93-.3,8.07,0,12.52a8.35,8.35,0,0,0,1.18,3.91c.84,1.36,4.19,5.06,5.07,6.11,1.34,1.6,6,5.74,7.79,7.94a76.69,76.69,0,0,1,9.83,14.27c2.56,5,2.71,6.82,5.26,8.56,3.12,2.12,4.81.65,10,2.65,2.57,1,7.08,2.7,9.25,6.77,1.61,3,.38,4.49,2.19,8.12a16.89,16.89,0,0,0,5.26,5.92c7.64,5.95,13.12,3.53,15.53,7.84.84,1.52.36,4.68-.62,11s-2.22,8.62-3.29,10.08c-1.5,2.07-2.51,2.36-4,3.85-4.89,5-2.66,11-5,16.89-2.9,7.45-11.38,10.69-17.34,13-10.71,4.1-16.28,1-26.35,7.08a46.33,46.33,0,0,0-6.35,4.86c-4.92,4.22-9,7.74-8.24,10.12.19.56,1,2.28,7,2.63a21.39,21.39,0,0,1,4,3.14c2.51,2.47,2.66,22.59,8.15,25.47,3.31,1.73,6.94-3.72,18.5-9,9.79-4.48,21.55-7.15,23.43-4.07s-6.4,10.3-4.08,13.4c.94,1.26,2.58.45,6.27,2.35,2.28,1.17,4.18,2.15,4.71,3.84,1.18,3.77-5.64,7-4.63,10.66.58,2.06,3,1.78,7.77,5,3.21,2.19,6.18,4.21,7.55,7.7a13.24,13.24,0,0,1-3.19,13.93c-2.55,2.35-5.58,2.82-9,3.34-7.65,1.18-12.86-1-13.79.87-.72,1.47,2.1,3.39,1.3,5.52-.73,2-3.94,2.44-4.81,2.58-3.17.47-8.11,0-21.8-9.12-6.35-4.24-8-6-11.9-6.28a15.24,15.24,0,0,0-10.12,3.12,15.64,15.64,0,0,0-5.7,11v29.93l193.7.65Z"/><path class="cls-28" d="M107.52,1208.42V1348.9a11.22,11.22,0,0,0,3,6.93c2.75,2.72,6.4,2.66,10.62,3,9.6.78,16.49,1.58,21.87,5.71,6.53,5,7.87,12.92,8.12,14.36a22.67,22.67,0,0,1-2.34,15,21.16,21.16,0,0,1-6,6.58c-12.31,9-26.71,1-33.19,8.51-2.26,2.6-2.32,5.67-2.34,11.58-.06,15.33.07,29.1.28,41.14l193.7-.13,0-253.16Z"/></g></g></svg>