<svg xmlns="http://www.w3.org/2000/svg" viewBox="0 0 39.91 48.34"><defs><style>.cls-1{fill:#708b75;}.cls-1,.cls-2{opacity:0.5;}.cls-2{fill:#536752;}</style></defs><g id="Calque_2" data-name="Calque 2"><g id="Calque_14" data-name="Calque 14"><path class="cls-1" d="M1.12,29C.38,26.43-1.53,18.72,2.38,11.14,5.27,5.56,12-1.33,17.44.22a6.23,6.23,0,0,1,2.93,1.93c3.12,3.55,2.42,10.36-1.8,17.09a18,18,0,0,1-7.91,7.91A17.79,17.79,0,0,1,1.12,29Z"/><path class="cls-1" d="M31.43,8.7c-2.07.59-2.8,3.46-3.13,4.74-1.17,4.6.9,8.61,1.68,10.07,1.69,3.17,5.17,7.3,7.35,6.55a2,2,0,0,0,.73-.51c1.66-1.53,1.87-4.07,1.85-6.26-.06-4.85-.11-8.77-3-11.91C36.26,10.71,33.77,8,31.43,8.7Z"/><path class="cls-2" d="M15.08,34.23c-.13.36.38.69,1.67,2.73.58.91.8,1.35,1.05,1.76a15.69,15.69,0,0,0,5,4.67c.93.59,1.4.79,6.26,2.73,5.55,2.21,6.09,2.41,6.38,2.1,1-1-2.15-5.86-5.68-9.16a19.92,19.92,0,0,0-7.93-4.69C18.81,33.49,15.39,33.36,15.08,34.23Z"/></g></g></svg>